<?xml version="1.0" encoding="UTF-8"?>
<svg id="Layer_1" xmlns="http://www.w3.org/2000/svg" version="1.1" xmlns:xlink="http://www.w3.org/1999/xlink" viewBox="0 0 95.5 34">
  <!-- Generator: Adobe Illustrator 29.8.2, SVG Export Plug-In . SVG Version: 2.1.1 Build 3)  -->
  <defs>
    <style>
      .st0 {
        fill: url(#linear-gradient2);
      }

      .st1 {
        fill: #fff;
      }

      .st2 {
        fill: url(#linear-gradient1);
      }

      .st3 {
        fill: url(#linear-gradient);
      }
    </style>
    <linearGradient id="linear-gradient" x1="18.5" y1="22.68" x2="19.92" y2="22.68" gradientUnits="userSpaceOnUse">
      <stop offset="0" stop-color="#2677bd"/>
      <stop offset="1" stop-color="#16568d"/>
    </linearGradient>
    <linearGradient id="linear-gradient1" x1="4.17" y1="22.95" x2="24.69" y2="22.95" xlink:href="#linear-gradient"/>
    <linearGradient id="linear-gradient2" x1="9.47" y1="9.86" x2="19.39" y2="9.86" xlink:href="#linear-gradient"/>
  </defs>
  <g>
    <path class="st1" d="M55.16,17.38v2.77h1.35c.74,0,1.36,0,1.36-.02,0-.01,0-3.44,0-7.62l-.02-7.6h-1.34c-.74,0-1.35.01-1.36.02,0,.01,0,2.19,0,4.84,0,2.65.02,6.07.02,7.59Z"/>
    <path class="st1" d="M36.38,13.83v6.32h2.82V7.5h4.61v-1.25c-.01-.81-.02-1.25-.04-1.25-.01,0-2.73,0-6.03,0h-6v2.49h2.32s2.32.01,2.32.01v6.32Z"/>
    <path class="st1" d="M82.13,17.16c-.21-.34-.51-.84-.67-1.11-.6-1-.72-1.18-.87-1.42-.08-.13-.15-.25-.15-.26,0-.01.12-.07.26-.13,1.17-.46,2.09-1.44,2.48-2.63.22-.68.31-1.39.25-2.12-.07-.97-.31-1.74-.79-2.46-.21-.31-.79-.89-1.11-1.11-.69-.46-1.42-.71-2.35-.83-.4-.05-.59-.06-3.7-.07h-3.28s0,7.56,0,7.56v7.57h2.83v-5.35h2.64l.07.11c.03.06.11.2.16.3.06.1.17.3.25.45.08.15.18.32.22.38s.22.4.42.74c.19.34.54.97.78,1.39.24.42.52.93.64,1.14s.27.47.34.6l.12.23h1.63c.89,0,1.63,0,1.63-.01,0-.02-.47-.8-1.8-2.98ZM80.05,11.69c-.23.24-.76.5-1.21.6-.51.11-.71.12-2.27.12h-1.51v-2.45s-.01-2.46-.01-2.46h.55c.94-.02,2.39,0,2.72.03.53.05.92.17,1.29.42.3.2.62.54.75.8.41.83.38,1.88-.07,2.63-.07.12-.18.26-.23.32Z"/>
    <path class="st1" d="M52.18,18.82c.38-.42.71-.98.88-1.48.12-.35.25-.31-1.11-.31h-1.18l-.13.16c-.43.54-.86.8-1.58.98-.2.05-.31.06-.73.06s-.52,0-.72-.06c-.52-.14-.87-.33-1.21-.66-.36-.35-.57-.7-.72-1.19-.04-.13-.18-.83-.18-.91,0-.01,1.74-.02,3.86-.02s3.88,0,3.91-.02c.06-.01.06-.03.07-.68.05-1.73-.19-2.71-.92-3.79-.24-.36-.83-.93-1.21-1.19-1-.66-2.24-.94-3.6-.8-1.62.16-3,.91-3.83,2.08-.62.86-.93,1.74-1.05,2.93-.15,1.48.13,2.94.78,3.98.75,1.21,1.98,2.07,3.41,2.38.31.07,1.09.16,1.34.16s1.01-.09,1.28-.16c1.09-.25,2.02-.77,2.64-1.47ZM45.78,12.49c.26-.53.76-1.04,1.28-1.3.17-.09.55-.2.78-.22.22-.03.57-.01.83.05.6.12,1.11.43,1.45.88.2.26.25.36.35.67.08.24.17.76.14.79,0,0-1.16.02-2.57.02-2.49.01-2.55,0-2.55-.04,0-.07.21-.69.28-.84Z"/>
    <path class="st1" d="M69.62,11.39c-.15-.28-.46-.74-.66-.96-.48-.53-1.13-.96-1.89-1.24-.77-.28-1.8-.39-2.75-.28-.42.05-.79.14-1.31.3-.28.09-.84.39-1.15.61-.36.26-.98.88-1.21,1.21-.59.87-.88,1.69-1.02,2.88-.07.6-.07,1.03.01,1.63.14,1.06.38,1.74.88,2.49.54.8,1.21,1.39,2.11,1.82.69.34,1.21.47,2.09.55.47.04.53.04.95,0,1.32-.13,2.41-.6,3.21-1.37.35-.34.7-.83.9-1.29.1-.22.27-.67.27-.7,0,0-.54,0-1.2,0h-1.2l-.04.08s-.15.19-.29.32c-.37.37-.73.57-1.31.73-.22.06-.33.07-.72.08-.4.01-.49,0-.71-.05-.68-.15-1.18-.46-1.57-.97-.31-.4-.56-1.11-.59-1.65v-.17s3.85-.01,3.85-.01h3.86s.02-.08.02-.08c.05-.17.08-.84.07-1.25-.04-1.03-.26-1.98-.62-2.67ZM67.42,13.36c-.05,0-1.2.02-2.54.02h-2.45s.02-.11.02-.11c.02-.17.2-.67.29-.84.13-.24.27-.43.44-.62.67-.72,1.5-.99,2.44-.79.76.16,1.36.63,1.66,1.28.09.21.2.63.23.9l.02.14h-.1Z"/>
    <path class="st1" d="M95.21,20.13s-.05-.1-.12-.18c-.12-.17-.35-.5-.91-1.32-.2-.29-.44-.65-.54-.79-.1-.15-.36-.52-.57-.83-.6-.88-.74-1.08-1.22-1.77l-.45-.64.12-.17c.13-.17.17-.24.51-.73.11-.17.29-.42.39-.57.1-.15.2-.28.21-.31.04-.07.27-.39.42-.62.08-.12.26-.38.4-.58.14-.2.35-.51.47-.69.12-.17.32-.47.45-.65.12-.18.32-.47.44-.65.12-.17.24-.35.28-.39.03-.04.06-.09.06-.11,0-.03-.3-.03-1.53-.03h-1.53s-.15.23-.15.23c-.09.12-.38.57-.66.99-.95,1.45-1.34,2.04-1.38,2.09q-.04.05-.1-.01s-.53-.78-1.1-1.64c-.57-.87-1.06-1.6-1.09-1.62-.04-.05-.12-.05-1.61-.04-.86,0-1.57.02-1.57.03,0,0,.03.05.06.09.06.08.38.54.76,1.1.13.2.28.42.34.49.15.21.92,1.33,1.17,1.69.26.39.69,1.02.85,1.25.06.09.2.29.31.44.28.39.28.4.22.5-.06.09-.4.59-.6.88-.08.12-.25.36-.37.54-.2.29-.6.88-.94,1.36-.06.09-.27.39-.46.67-.85,1.24-1.24,1.81-1.33,1.89-.03.04-.06.08-.06.1,0,.03,2.98.03,3.05,0,.03-.01.2-.23.2-.26,0,0,1.77-2.68,1.91-2.87.04-.07.13-.19.18-.28l.1-.15.05.06c.04.06.34.5.91,1.37.46.71.59.9.71,1.1.08.12.23.35.34.52.11.17.23.36.27.42l.07.11h1.52c.98,0,1.52,0,1.52-.03Z"/>
    <path class="st1" d="M69.28,23.66v.85s.01.85.01.85l-.15-.17c-.26-.28-.5-.4-.85-.4-.61,0-1.1.41-1.29,1.08-.07.27-.07.85,0,1.09.12.38.29.63.56.81.26.18.39.21.74.21q.29,0,.49-.11c.13-.06.24-.14.29-.2.04-.05.11-.13.15-.18l.08-.09v.26s-.02.26-.02.26h.63v-2.14s.01-2.14.01-2.14h-.67ZM69.2,26.95c-.12.24-.21.34-.4.43-.15.07-.19.08-.37.08-.33,0-.55-.14-.7-.44-.19-.38-.19-.88,0-1.25.12-.22.3-.37.51-.42.18-.04.21-.04.4,0,.26.06.42.19.57.51.08.17.08.17.08.54s0,.38-.08.54Z"/>
    <path class="st1" d="M76.82,23.73c-.06-.05-.1-.07-.21-.07-.07,0-.16.02-.19.03-.23.12-.23.5,0,.63.18.1.41.03.52-.16.08-.13.03-.3-.12-.43Z"/>
    <path class="st1" d="M37.56,24.37l.19-.09h.34c.34,0,.34,0,.51.09.23.11.35.24.47.49l.1.21h.58l-.02-.13c-.03-.21-.2-.53-.39-.72-.18-.18-.45-.34-.71-.41-.16-.05-.67-.07-.88-.04-.57.09-1.08.46-1.35.99-.13.26-.2.52-.24.89-.05.48.06,1.02.3,1.44.21.37.57.68.97.83.35.13.98.12,1.34-.02.4-.16.65-.37.81-.72.1-.2.17-.43.15-.45,0,0-.13-.02-.28-.02-.22,0-.28,0-.29.03-.01.02-.04.1-.08.17-.08.17-.28.38-.46.46-.19.09-.38.12-.65.11-.19-.01-.26-.03-.4-.1-.32-.15-.56-.46-.69-.88-.05-.17-.06-.24-.06-.64,0-.49.03-.66.16-.92.11-.22.35-.46.58-.57Z"/>
    <path class="st1" d="M52.78,25.83c-.18-.06-.21-.11-.09-.15.24-.08.47-.32.54-.57.08-.28.02-.63-.15-.84-.21-.28-.51-.41-1.02-.46-.44-.04-1.72-.04-1.73,0,0,.02-.01.95,0,2.08v2.05s.95,0,.95,0c1,0,1.18-.02,1.48-.14.36-.14.59-.4.67-.74.06-.28.03-.55-.08-.77-.12-.24-.27-.36-.56-.46ZM50.96,24.55l.02-.19h.64c.63.02.65.02.76.08.17.1.24.24.24.49,0,.23-.03.3-.18.45-.14.14-.32.17-.95.17-.44,0-.51,0-.52-.04-.02-.05-.02-.71,0-.95ZM52.58,27.24c-.16.12-.27.14-.97.14-.56,0-.65,0-.66-.04-.02-.05-.02-1.23,0-1.25,0-.01.3-.02.66-.02.63,0,.65,0,.78.06.21.1.28.16.35.3.13.27.05.65-.16.81Z"/>
    <path class="st1" d="M73.81,23.82c-.29-.04-1.43-.05-1.58-.02h-.06s0,2.07,0,2.07v2.06s.61,0,.61,0c.99.01,1.37-.04,1.82-.26.32-.16.61-.45.77-.76.19-.38.22-.52.22-1.05,0-.43,0-.48-.07-.69-.24-.78-.84-1.25-1.72-1.36ZM74.74,26.79c-.16.23-.39.4-.68.51-.17.06-.22.07-.72.08h-.53s0-1.29,0-1.29c0-.72,0-1.4.02-1.51l.02-.21h.53c.49.02.54.03.7.09.44.17.75.5.86.94.12.47.04,1.06-.19,1.4Z"/>
    <path class="st1" d="M81.42,26.06v-.68s.38-.01.38-.01h.38s0-.26,0-.26v-.24s-.1,0-.1,0c-.06,0-.23-.01-.38-.02l-.28-.02v-.41s-.01-.41-.01-.41h-.6v.83h-.24s-.24.02-.24.02v.25s0,.25,0,.25h.23s.23.03.23.03l.02.92c.01.88.02.92.07,1.08.08.22.23.39.43.5l.16.09h.33c.22,0,.34-.01.36-.03.02-.02.03-.12.03-.25v-.22s-.22,0-.22,0c-.5,0-.57-.18-.56-1.41Z"/>
    <path class="st1" d="M42.31,24.93c-.24-.12-.66-.18-.94-.14-.35.05-.65.21-.8.41-.09.12-.23.47-.2.52.01.03.06.04.28.03h.27s.03-.09.03-.09c.05-.14.19-.28.33-.35.12-.06.16-.06.36-.05.18,0,.24.02.34.08.15.09.26.3.28.55l.02.17-.35.02c-.47.02-.89.08-1.08.14-.28.09-.52.33-.59.57-.05.17-.02.52.06.67.09.18.25.35.42.43.13.07.18.07.44.08.23,0,.33,0,.44-.04.2-.07.48-.26.55-.38.03-.06.07-.1.08-.1.01,0,.02.11.02.25v.25h.3s.29-.02.29-.02v-1.05c.02-1.14,0-1.26-.13-1.54-.08-.16-.24-.34-.41-.42ZM42.24,26.69c0,.42-.27.71-.71.8-.21.04-.45.02-.55-.06-.1-.07-.15-.21-.15-.36,0-.28.14-.43.46-.5.25-.06.29-.06.65-.06h.31s0,.18,0,.18Z"/>
    <path class="st1" d="M44.97,24.79c-.18.03-.34.09-.44.16-.12.09-.27.25-.27.28,0,.05-.06.16-.08.16-.01,0-.02-.12-.02-.26v-.26h-.6v1.54s.01,1.54.01,1.54h.58l.02-.87c.01-.73.02-.89.06-1,.1-.31.26-.52.46-.61.07-.03.2-.06.34-.07l.23-.02v-.25c.01-.14,0-.28,0-.31-.02-.06-.05-.07-.29-.03Z"/>
    <path class="st1" d="M47.2,24.83c-.21-.05-.55-.05-.74.01-.38.11-.71.39-.89.76-.31.66-.2,1.51.26,1.97.17.17.4.31.61.37.18.05.67.05.84,0,.2-.06.42-.19.56-.33.12-.12.32-.47.31-.52,0-.01-.12-.03-.27-.03h-.26s-.06.09-.06.09c-.08.12-.22.25-.34.3-.06.03-.17.04-.33.04-.2,0-.26-.01-.37-.06-.15-.07-.33-.24-.41-.4-.05-.1-.13-.36-.13-.42,0-.03.22-.03,1.1-.03.6,0,1.11-.01,1.13-.02.05-.03.02-.42-.05-.69-.14-.54-.49-.92-.98-1.03ZM46.86,26.12c-.46,0-.84-.01-.84-.02-.02-.03.05-.26.11-.38.07-.14.29-.34.44-.4.19-.08.48-.06.67.04.07.04.17.11.21.16.1.12.21.36.24.5l.02.11h-.83Z"/>
    <path class="st1" d="M55.71,26.57h1.09s0-.26,0-.26c0-.74-.41-1.32-1.03-1.48-.23-.06-.59-.05-.79.02-.42.14-.69.41-.9.89-.13.3-.14.95-.03,1.25.15.4.41.7.77.87.21.11.22.11.52.12.36.01.52-.02.76-.13.23-.11.41-.29.52-.53.13-.26.12-.27-.18-.25-.2.01-.25.02-.27.06-.12.17-.19.24-.31.3-.13.06-.16.07-.4.07s-.28,0-.39-.07c-.15-.08-.29-.23-.38-.41-.07-.15-.12-.38-.09-.41.01-.01.51-.02,1.11-.03ZM54.59,26.09c-.04-.11.16-.52.32-.65.19-.16.5-.21.77-.13.15.05.33.19.42.35.07.12.15.4.13.44-.01.02-.31.03-.82.03-.68,0-.8,0-.82-.04Z"/>
    <path class="st1" d="M62.01,24.83c-.2-.05-.62-.05-.82.01-.39.11-.72.38-.88.73-.13.28-.17.42-.18.77-.01.28,0,.35.04.52.08.3.21.53.41.72.33.32.73.45,1.27.4.37-.04.61-.15.87-.42.18-.19.28-.37.37-.64.08-.25.08-.82,0-1.04-.19-.56-.54-.9-1.08-1.04ZM62.52,26.41c0,.25-.01.33-.06.45-.08.2-.18.35-.33.46-.15.12-.25.15-.51.15-.18,0-.22-.01-.36-.08-.32-.16-.5-.53-.51-1.01,0-.47.2-.85.53-1.02.13-.07.18-.08.33-.08.1,0,.23.02.29.04.25.09.44.3.56.61.05.14.06.21.06.46Z"/>
    <path class="st1" d="M65.24,24.79c-.11,0-.25.02-.3.04-.23.08-.41.21-.51.37-.04.06-.07.1-.08.1-.01,0-.02-.1-.01-.21v-.21s-.29,0-.29,0h-.3v.38c0,.21-.01.47-.01.58,0,.11,0,.63,0,1.16v.96h.6v-1.02s.02-1.02.02-1.02l.08-.17c.13-.27.28-.38.54-.41.22-.03.43.05.59.2q.22.22.23,1.4v1.02h.29c.21,0,.29,0,.31-.04.05-.06.02-1.98-.03-2.22-.12-.56-.55-.91-1.13-.91Z"/>
    <path class="st1" d="M79.78,26.51c-.12-.1-.35-.2-.66-.29-.15-.04-.36-.1-.47-.13-.34-.1-.49-.24-.47-.48.01-.1.03-.14.1-.21.12-.11.26-.14.52-.13.27.01.39.08.51.26.05.07.08.13.09.14.01.01.52,0,.53-.01,0,0-.01-.08-.04-.17-.11-.33-.37-.55-.74-.65-.23-.06-.59-.07-.79-.01-.33.09-.55.25-.68.5-.07.13-.08.17-.08.34,0,.5.25.73,1.08.96.4.11.55.18.64.25.23.21.14.51-.19.6-.26.07-.65.03-.81-.07-.09-.06-.19-.17-.23-.26-.03-.08-.04-.08-.11-.07-.04,0-.17.02-.28.02q-.23,0-.13.21c.04.1.12.2.24.32.27.27.5.35,1.02.35.48,0,.7-.07.95-.3.18-.17.23-.27.24-.55.01-.22,0-.24-.07-.39-.04-.09-.12-.19-.16-.23Z"/>
    <path class="st1" d="M84.4,24.83c-.22-.05-.67-.05-.87,0-.18.05-.36.15-.5.27-.11.1-.27.4-.29.56l-.02.11h.29s.29-.02.29-.02l.03-.09c.04-.13.18-.28.32-.34.18-.09.48-.09.66,0,.2.09.3.27.33.55l.02.19-.14.02c-.08,0-.28.02-.45.03-.48.02-.75.07-.97.18-.37.19-.53.48-.48.91.03.28.2.53.49.7.12.07.14.08.45.08.29.01.34,0,.48-.05.21-.08.42-.23.52-.37l.09-.12v.25s.03.25.03.25h.58v-1.12c.01-1.08.01-1.13-.04-1.28-.13-.39-.38-.61-.78-.71ZM84.61,26.69c0,.23-.06.39-.21.54-.16.17-.36.25-.65.27-.37.02-.51-.06-.57-.33-.06-.28.09-.5.38-.59.16-.05.53-.08.85-.07h.2s0,.18,0,.18Z"/>
    <path class="st1" d="M88.54,25.59c-.12-.38-.4-.66-.78-.76-.17-.05-.5-.04-.65,0-.18.06-.38.21-.47.35-.04.07-.09.13-.1.13-.01,0-.02-.1,0-.22v-.23s-.29,0-.29,0h-.3v3.09h.3s.29-.02.29-.02v-1.03s.03-1.03.03-1.03l.07-.15c.14-.28.33-.4.63-.4.24,0,.38.06.52.21.2.22.2.23.21,1.35,0,.54,0,1.01,0,1.02,0,.05.56.05.6,0,.03-.03.03-.26.02-1.1-.02-.97-.02-1.07-.07-1.23Z"/>
    <path class="st1" d="M90.65,25.33c.31,0,.53.13.68.42.05.1.08.14.12.13.03,0,.16,0,.28,0h.23s-.02-.09-.02-.09c-.03-.15-.19-.45-.33-.59-.15-.17-.39-.31-.63-.37-.2-.05-.58-.05-.78.01-.66.19-1.07.78-1.07,1.54s.42,1.37,1.07,1.56c.22.07.68.06.88-.01.22-.08.34-.16.51-.33.17-.17.33-.46.35-.63.01-.1.01-.1-.05-.09-.03.01-.16.02-.29.02h-.23l-.05.11c-.06.14-.21.29-.37.38-.12.06-.16.07-.33.07-.45,0-.73-.27-.84-.82-.08-.42.04-.84.3-1.11.16-.16.27-.2.54-.2Z"/>
    <path class="st1" d="M94.44,24.94c-.31-.15-.71-.19-1.02-.1-.67.19-1.11.89-1.06,1.67.03.41.19.82.44,1.06.18.18.31.26.56.34.17.06.21.07.54.06h.35s.21-.11.21-.11c.16-.08.25-.15.35-.25.14-.15.36-.51.32-.53-.01,0-.15-.01-.3,0-.21,0-.28.02-.28.04,0,.06-.2.26-.32.32-.1.05-.16.06-.37.06-.22,0-.27,0-.39-.07-.16-.08-.32-.23-.4-.39-.05-.1-.13-.35-.13-.42,0-.03.22-.03,1.1-.03s1.11,0,1.13-.04c.03-.04,0-.46-.05-.69-.08-.34-.41-.77-.7-.91ZM93.8,26.12h-.84l.02-.07c.06-.24.13-.37.29-.53.18-.19.31-.24.53-.25.08,0,.19.01.26.03.25.08.44.28.54.58.09.27.17.24-.79.24Z"/>
    <path class="st1" d="M59.35,24.87s-.24.63-.65,1.84c-.09.28-.18.5-.2.51-.03.01-.01.07-.44-1.21-.2-.59-.36-1.1-.37-1.12-.02-.05-.01-.05-.39-.03l-.31.02.05.11c.03.06.11.26.17.44.18.48.6,1.59.81,2.09.1.24.17.44.17.46,0,.06-.15.35-.21.43-.11.13-.2.16-.44.16h-.22s0,.15,0,.15c0,.08,0,.18-.01.22-.02.15-.02.16.36.15.3,0,.36-.02.46-.07.18-.1.25-.16.37-.33.14-.21.16-.26.89-2.23.1-.26.25-.68.35-.94.1-.26.19-.51.19-.56l.02-.08h-.28c-.16-.01-.29,0-.31,0Z"/>
    <path class="st1" d="M76.81,24.86s-.16,0-.28,0h-.23s0,1.54,0,1.54v1.54h.58v-1.54c.01-.84,0-1.54,0-1.54-.01,0-.04,0-.07,0Z"/>
  </g>
  <g>
    <path class="st1" d="M15.38,29.8s0,0,0,0c-.26,0-.54,0-.83,0h-.3c-.27,0-.53,0-.78,0,0,0,0,0,0,0h-6.86l5.31,2.95c1.52,1,3.49,1,5.01,0l5.31-2.95h-6.87Z"/>
    <path class="st1" d="M19.98.5h-11.09C4.14.5.29,4.35.29,9.09v12.15c0,1.83.57,3.53,1.55,4.93.64.92,1.46,1.7,2.4,2.3-.04-.12-.06-.25-.07-.38,0-.47,0-1.57,0-2.83,0-.97,0-1.64,0-2.13,0-.5,0-.81.02-1.03,0-.07.02-.14.03-.22.34-2.05,1.93-3.83,4.22-4.97h.02v1.31c0,1.02,0,1.32-.03,1.33-.02,0-.13.06-.25.11-.42.17-.85.51-1.13.88-.16.21-.34.57-.44.86-.14.44-.15.54-.15,2.3,0,1.54,0,1.6.05,1.78.14.49.4.8.79.93.13.04.2.05.38.04.25-.01.38-.06.52-.2.14-.13.19-.25.19-.47,0-.17-.01-.21-.07-.33-.08-.14-.14-.2-.36-.32-.17-.1-.33-.26-.37-.39-.02-.07-.03-.4-.04-1.3,0-1.01,0-1.23.03-1.39.15-.76.75-1.28,1.47-1.28.26,0,.43.04.71.18.37.19.71.65.81,1.06.05.21.05,2.58,0,2.73-.04.15-.18.28-.36.37-.31.14-.41.29-.43.6-.02.31.09.52.35.65.16.09.51.11.7.05.16-.06.4-.22.5-.34.25-.31.31-.48.34-1,.03-.46,0-2.85-.03-3.14-.08-.64-.37-1.23-.84-1.69-.32-.32-.62-.51-1.02-.65-.13-.04-.16-.07-.17-.12,0-.03,0-.56,0-1.17.02-1.18.02-1.26.15-1.65.02-.05.03-.1.05-.14.05-.14.09-.19.15-.24.03-.02.07-.04.11-.06.11-.04.23-.07.34-.11.02,0,.04,0,.05,0,.08-.01.17-.03.2-.04.06-.01.1.03.26.35.01.02.03.05.04.07.24.45.41.72.67,1.08.74,1,1.52,1.71,2.71,2.43.04.02.08.04.09.04.05,0,.95-.63,1.3-.92.55-.44,1.4-1.41,1.77-2.01.08-.14.11-.19.35-.62,0-.01.01-.03.02-.04.08-.15.17-.3.19-.31.03-.02.09-.03.23-.02.05,0,.1.01.15.02.12.04.25.08.37.12.12.05.21.12.24.17.02.03.03.07.04.11.1.31.14.89.08,1.32-.12.81-.29,1.61-.54,2.42-.06.2-.11.38-.11.4,0,.02-.07.07-.16.11-.62.28-1.08.85-1.19,1.49-.04.26-.02.82.05,1.03.14.45.41.82.79,1.06.31.2.56.29.91.33.88.1,1.71-.33,2.09-1.09.21-.43.27-.86.18-1.33-.12-.63-.55-1.16-1.17-1.47-.12-.06-.14-.08-.13-.12.15-.49.33-1.32.44-1.97.1-.61.12-.73.16-1.31l.03-.42c2.22,1.14,3.75,2.9,4.08,4.9.04.29.07.58.07.88,0,.01,0,.03,0,.04v5.14c0,.18-.03.36-.08.53.94-.61,1.76-1.39,2.41-2.31.98-1.39,1.55-3.09,1.55-4.93v-12.15c0-4.75-3.85-8.59-8.59-8.59ZM14.43,15.16c-2.74,0-4.96-2.37-4.96-5.3s2.22-5.3,4.96-5.3,4.96,2.37,4.96,5.3-2.22,5.3-4.96,5.3ZM19.91,22.65c0,.14,0,.19-.05.31-.08.18-.22.32-.39.37-.22.07-.33.08-.48.02-.41-.14-.61-.61-.42-1,.18-.36.57-.51.92-.34.25.12.41.35.42.63Z"/>
  </g>
  <g>
    <path class="st3" d="M18.58,22.36c-.19.38.01.86.42,1,.15.05.26.05.48-.02.16-.05.31-.19.39-.37.05-.12.06-.17.05-.31-.01-.28-.17-.51-.42-.63-.35-.16-.74-.02-.92.34Z"/>
    <path class="st2" d="M24.69,22.77c0-.3-.02-.59-.07-.88-.33-2-1.86-3.76-4.08-4.9l-.03.42c-.04.59-.06.71-.16,1.31-.11.65-.29,1.48-.44,1.97-.01.04,0,.06.13.12.63.31,1.06.85,1.17,1.47.09.47.03.91-.18,1.33-.38.76-1.21,1.2-2.09,1.09-.35-.04-.6-.13-.91-.33-.37-.24-.64-.6-.79-1.06-.07-.21-.1-.77-.05-1.03.11-.63.57-1.21,1.19-1.49.09-.04.16-.09.16-.11,0-.02.05-.2.11-.4.25-.81.43-1.6.54-2.42.06-.43.02-1.01-.08-1.32-.01-.04-.03-.08-.04-.11-.03-.06-.12-.12-.24-.17-.12-.04-.24-.08-.37-.12-.05,0-.1-.02-.15-.02-.14,0-.2,0-.23.02-.02.02-.11.16-.19.31,0,.01-.01.03-.02.04-.24.44-.27.49-.35.62-.37.6-1.21,1.56-1.77,2.01-.36.28-1.25.92-1.3.92-.01,0-.06-.02-.09-.04-1.18-.72-1.97-1.43-2.71-2.43-.26-.36-.43-.63-.67-1.08-.01-.02-.02-.05-.04-.07-.17-.32-.2-.36-.26-.35-.03,0-.12.02-.2.04-.02,0-.03,0-.05,0-.12.03-.23.07-.34.11-.05.02-.09.04-.11.06-.06.04-.1.1-.15.24-.01.04-.03.08-.05.14-.13.39-.14.47-.15,1.65,0,.61,0,1.13,0,1.17,0,.05.04.07.17.12.4.14.71.33,1.02.65.47.46.76,1.05.84,1.69.04.29.06,2.68.03,3.14-.03.51-.09.69-.34,1-.1.13-.34.29-.5.34-.19.06-.53.04-.7-.05-.26-.13-.37-.34-.35-.65.02-.31.12-.46.43-.6.18-.09.31-.22.36-.37.05-.16.05-2.53,0-2.73-.1-.42-.44-.87-.81-1.06-.28-.14-.44-.19-.71-.18-.72,0-1.32.52-1.47,1.28-.03.16-.04.38-.03,1.39,0,.9.02,1.23.04,1.3.04.13.2.29.37.39.22.12.28.18.36.32.06.11.07.16.07.33,0,.22-.05.34-.19.47-.14.14-.28.19-.52.2-.18,0-.25,0-.38-.04-.39-.13-.65-.44-.79-.93-.05-.18-.05-.24-.05-1.78,0-1.76,0-1.85.15-2.3.09-.29.28-.65.44-.86.28-.36.71-.7,1.13-.88.12-.05.23-.1.25-.11.02-.01.03-.31.03-1.33v-1.31h-.02c-2.29,1.14-3.88,2.92-4.22,4.97-.01.07-.02.14-.03.22-.01.22-.02.52-.02,1.03,0,.49,0,1.17,0,2.13,0,1.26,0,2.36,0,2.83,0,.13.03.26.07.38.04.13.09.26.16.38.32.57.92.95,1.62.95h7.45s0,0,0,0c.25,0,.51,0,.78,0h.3c.29,0,.56,0,.83,0,0,0,0,0,0,0h7.45c.7,0,1.3-.38,1.62-.95.07-.12.12-.24.16-.37.05-.17.08-.34.08-.53v-5.14s0-.03,0-.04Z"/>
    <ellipse class="st0" cx="14.43" cy="9.86" rx="4.96" ry="5.3"/>
  </g>
</svg>