<?xml version="1.0" encoding="UTF-8"?>
<svg id="Layer_1" xmlns="http://www.w3.org/2000/svg" version="1.1" xmlns:xlink="http://www.w3.org/1999/xlink" viewBox="0 0 113 40">
  <!-- Generator: Adobe Illustrator 29.8.2, SVG Export Plug-In . SVG Version: 2.1.1 Build 3)  -->
  <defs>
    <style>
      .st0 {
        fill: url(#linear-gradient2);
      }

      .st1 {
        fill: #fff;
      }

      .st2 {
        fill: url(#linear-gradient1);
      }

      .st3 {
        fill: #172b38;
      }

      .st4 {
        fill: url(#linear-gradient);
      }
    </style>
    <linearGradient id="linear-gradient" x1="37.57" y1="20" x2="112.59" y2="20" gradientUnits="userSpaceOnUse">
      <stop offset="0" stop-color="#172b38"/>
      <stop offset="1" stop-color="#33517a"/>
    </linearGradient>
    <linearGradient id="linear-gradient1" x1="7.88" y1="37.31" x2="26.36" y2="37.31" gradientUnits="userSpaceOnUse">
      <stop offset="0" stop-color="#0c77c9"/>
      <stop offset="1" stop-color="#15558d"/>
    </linearGradient>
    <linearGradient id="linear-gradient2" x1=".41" y1="17.03" x2="33.83" y2="17.03" xlink:href="#linear-gradient1"/>
  </defs>
  <g>
    <g>
      <path class="st3" d="M65.26,20.45v3.28h1.59c.88,0,1.6,0,1.61-.03,0-.01,0-4.06,0-9l-.02-8.98h-1.59c-.88,0-1.6.01-1.61.03,0,.01,0,2.59,0,5.72,0,3.13.02,7.17.02,8.97Z"/>
      <path class="st3" d="M43.06,16.25v7.47h3.33v-14.95h5.44v-1.48c-.01-.95-.03-1.48-.05-1.48-.02,0-3.22,0-7.12,0h-7.09v2.95h2.75s2.74.02,2.74.02v7.47Z"/>
      <path class="st3" d="M97.13,20.19c-.24-.4-.6-.99-.79-1.31-.71-1.18-.85-1.4-1.03-1.67-.1-.15-.18-.29-.18-.31,0-.02.14-.08.31-.15,1.38-.55,2.47-1.7,2.93-3.11.26-.8.36-1.64.3-2.51-.08-1.15-.37-2.06-.93-2.91-.24-.37-.93-1.06-1.31-1.31-.82-.54-1.68-.84-2.78-.99-.48-.06-.7-.07-4.37-.08h-3.87s0,8.93,0,8.93v8.95h3.35v-6.32h3.12l.08.13c.04.08.13.23.19.35.07.12.2.36.3.53.1.17.21.38.26.45s.27.47.49.88c.23.4.64,1.14.92,1.64.28.5.62,1.1.76,1.35s.32.56.4.71l.15.28h1.92c1.05,0,1.92,0,1.92-.01,0-.02-.56-.94-2.13-3.52ZM94.67,13.72c-.28.28-.9.59-1.44.71-.6.13-.84.14-2.68.14h-1.78v-2.9s-.02-2.9-.02-2.9h.65c1.11-.03,2.82,0,3.22.03.63.06,1.08.21,1.52.49.35.23.74.64.89.94.48.99.45,2.22-.08,3.1-.09.14-.21.31-.27.38Z"/>
      <path class="st3" d="M61.73,22.15c.44-.5.84-1.16,1.04-1.75.14-.41.3-.37-1.31-.37h-1.39l-.16.19c-.51.64-1.01.95-1.87,1.16-.24.06-.37.07-.86.07s-.61,0-.85-.07c-.62-.16-1.03-.39-1.43-.78-.43-.42-.67-.82-.85-1.41-.05-.16-.21-.98-.21-1.07,0-.01,2.05-.03,4.56-.03s4.59,0,4.62-.02c.07-.02.07-.04.09-.8.06-2.05-.23-3.2-1.09-4.48-.29-.43-.98-1.1-1.43-1.4-1.18-.78-2.65-1.11-4.25-.94-1.91.19-3.54,1.08-4.53,2.46-.73,1.02-1.1,2.06-1.24,3.47-.18,1.75.16,3.47.92,4.7.88,1.43,2.34,2.45,4.03,2.81.37.08,1.29.19,1.58.19s1.19-.11,1.52-.19c1.29-.3,2.39-.91,3.12-1.73ZM54.17,14.67c.31-.63.9-1.23,1.51-1.54.2-.1.65-.23.93-.27.27-.03.67-.01.99.05.71.14,1.32.51,1.72,1.04.23.31.29.42.41.79.09.29.2.89.17.93,0,0-1.38.03-3.03.03-2.94.01-3.02,0-3.02-.05,0-.09.24-.81.33-.99Z"/>
      <path class="st3" d="M82.34,13.37c-.17-.33-.55-.87-.78-1.13-.56-.63-1.34-1.14-2.23-1.47-.91-.33-2.13-.46-3.25-.33-.49.06-.93.16-1.55.36-.33.11-1,.46-1.36.72-.43.3-1.16,1.04-1.43,1.43-.7,1.03-1.04,2-1.2,3.41-.08.71-.08,1.21.01,1.93.16,1.25.45,2.06,1.04,2.94.64.95,1.43,1.64,2.5,2.16.82.4,1.43.56,2.47.65.55.05.63.05,1.13,0,1.56-.15,2.85-.7,3.8-1.62.42-.4.82-.99,1.06-1.52.12-.27.32-.8.32-.83,0,0-.64,0-1.42,0h-1.42l-.05.09s-.18.22-.34.38c-.44.44-.86.67-1.55.86-.26.07-.38.09-.85.1-.48.01-.58,0-.84-.06-.81-.18-1.39-.54-1.85-1.15-.36-.48-.66-1.32-.69-1.95v-.2s4.55-.02,4.55-.02l4.57-.02.02-.08c.05-.21.1-1,.08-1.47-.04-1.22-.31-2.34-.74-3.15ZM79.75,15.69c-.06,0-1.42.02-3.01.02h-2.89s.02-.13.02-.13c.03-.2.23-.79.34-.99.16-.28.32-.51.52-.73.79-.85,1.77-1.17,2.88-.93.9.19,1.6.74,1.96,1.52.11.24.24.75.27,1.06l.02.16-.12.02Z"/>
      <path class="st3" d="M112.59,23.69s-.06-.11-.14-.21c-.15-.2-.42-.59-1.08-1.56-.23-.34-.52-.76-.64-.94-.12-.18-.43-.62-.68-.98-.71-1.04-.88-1.28-1.44-2.09l-.53-.76.14-.2c.15-.2.21-.28.6-.87.13-.2.34-.5.46-.68.12-.17.23-.33.25-.36.05-.08.32-.47.5-.73.09-.14.31-.45.47-.69.17-.24.42-.61.56-.81.14-.21.38-.55.53-.77.15-.22.38-.56.52-.77.14-.21.29-.42.33-.46.04-.05.08-.11.08-.13,0-.03-.36-.04-1.8-.04h-1.81s-.18.27-.18.27c-.1.15-.45.67-.78,1.17-1.12,1.71-1.59,2.41-1.63,2.47q-.05.06-.11-.02s-.62-.92-1.3-1.94c-.68-1.02-1.26-1.89-1.29-1.92-.05-.05-.15-.06-1.91-.05-1.02,0-1.86.02-1.86.03,0,0,.03.06.07.11.08.1.45.64.9,1.3.16.23.33.49.4.58.18.25,1.09,1.58,1.38,2,.31.46.82,1.2,1.01,1.48.08.11.24.34.36.52.33.46.33.48.27.59-.07.11-.47.7-.71,1.04-.1.14-.29.43-.44.64-.23.34-.71,1.04-1.11,1.61-.07.1-.32.46-.55.8-1,1.46-1.47,2.13-1.57,2.24-.04.04-.08.09-.08.11,0,.03,3.53.04,3.61,0,.04-.02.24-.27.24-.31,0,0,2.1-3.17,2.25-3.4.05-.08.15-.22.21-.33l.11-.18.06.07c.05.07.4.59,1.07,1.62.55.84.69,1.07.84,1.3.09.14.27.42.4.62.13.2.28.42.32.49l.08.13h1.8c1.16,0,1.8,0,1.8-.03Z"/>
      <path class="st3" d="M81.94,27.87v1s.01,1,.01,1l-.18-.2c-.3-.34-.59-.47-1-.47-.73,0-1.3.48-1.52,1.28-.09.32-.09,1,0,1.29.14.44.34.74.67.96.31.21.46.25.87.25q.34,0,.58-.13c.15-.07.28-.17.34-.23.05-.06.13-.15.18-.21l.09-.1v.31s-.02.31-.02.31h.74v-2.53s.01-2.53.01-2.53h-.79ZM81.85,31.76c-.14.28-.25.4-.48.51-.18.09-.23.1-.44.1-.39,0-.65-.16-.83-.52-.23-.45-.23-1.04,0-1.48.14-.26.36-.44.6-.49.22-.05.25-.05.47,0,.31.07.49.23.67.61.09.2.09.2.09.64s0,.45-.09.64Z"/>
      <path class="st3" d="M90.86,27.95c-.07-.06-.12-.08-.24-.08-.09,0-.19.02-.23.04-.27.14-.27.59,0,.74.22.11.48.03.62-.19.09-.15.04-.36-.15-.51Z"/>
      <path class="st3" d="M44.45,28.71l.23-.11h.4c.4,0,.4,0,.61.1.27.13.41.28.56.58l.12.25h.69l-.02-.16c-.03-.25-.23-.62-.46-.85-.21-.21-.54-.4-.83-.49-.19-.06-.8-.09-1.04-.05-.68.1-1.28.54-1.59,1.17-.15.31-.24.62-.28,1.05-.06.57.07,1.2.35,1.7.25.44.68.8,1.15.98.41.15,1.16.14,1.59-.03.47-.18.76-.44.96-.85.11-.24.2-.5.17-.53,0,0-.16-.02-.34-.02-.26,0-.33,0-.35.04-.01.02-.05.12-.09.2-.09.2-.33.45-.55.55-.22.1-.45.14-.77.13-.23-.01-.3-.03-.47-.11-.38-.18-.67-.54-.82-1.04-.06-.2-.07-.28-.07-.76,0-.58.03-.78.18-1.08.13-.26.42-.55.68-.68Z"/>
      <path class="st3" d="M62.44,30.44c-.21-.07-.25-.13-.11-.17.28-.09.56-.38.64-.68.09-.33.02-.74-.18-1-.25-.33-.6-.49-1.2-.54-.53-.05-2.03-.04-2.05,0,0,.02-.01,1.13,0,2.46v2.42s1.12,0,1.12,0c1.19,0,1.39-.02,1.75-.16.43-.17.7-.47.79-.87.07-.33.04-.65-.09-.91-.14-.28-.32-.43-.66-.55ZM60.29,28.93l.02-.23h.76c.75.02.76.02.89.09.2.11.28.28.28.58,0,.27-.03.36-.21.53-.17.16-.38.2-1.12.2-.52,0-.6,0-.62-.05-.02-.06-.02-.83,0-1.12ZM62.21,32.1c-.18.14-.31.16-1.14.16-.67,0-.77,0-.78-.05-.02-.06-.02-1.45,0-1.47,0-.01.36-.02.78-.02.75,0,.76,0,.92.07.25.12.33.19.41.35.15.32.06.77-.18.96Z"/>
      <path class="st3" d="M87.3,28.06c-.35-.04-1.69-.06-1.87-.02h-.07s0,2.45,0,2.45v2.44s.72,0,.72,0c1.17.01,1.62-.05,2.15-.31.38-.19.73-.53.91-.9.23-.45.26-.62.26-1.25,0-.51,0-.57-.08-.82-.28-.93-.99-1.48-2.04-1.6ZM88.39,31.57c-.18.28-.46.48-.8.6-.2.07-.26.08-.85.09h-.63s0-1.53,0-1.53c0-.85,0-1.65.02-1.79l.02-.25h.63c.58.02.64.03.82.1.52.2.88.59,1.02,1.11.15.55.05,1.26-.23,1.66Z"/>
      <path class="st3" d="M96.29,30.71v-.8s.45-.01.45-.01h.45s0-.31,0-.31v-.29s-.12,0-.12,0c-.07,0-.27-.01-.45-.02l-.33-.02v-.48s-.01-.48-.01-.48h-.71v.98h-.28s-.29.02-.29.02v.3s0,.3,0,.3h.28s.28.03.28.03l.02,1.08c.01,1.04.02,1.09.08,1.27.09.26.27.46.51.59l.19.11h.39c.26,0,.4-.01.43-.04.02-.02.04-.14.04-.29v-.26s-.26,0-.26,0c-.6,0-.68-.21-.66-1.66Z"/>
      <path class="st3" d="M50.07,29.37c-.28-.14-.78-.21-1.12-.16-.41.06-.76.24-.95.49-.11.14-.27.55-.24.62.01.04.07.04.34.04h.32s.03-.1.03-.1c.05-.16.22-.34.39-.42.15-.07.19-.07.42-.06.21,0,.28.03.4.09.18.1.31.36.34.65l.02.2-.41.02c-.55.03-1.06.09-1.27.17-.33.11-.62.39-.7.67-.06.2-.02.62.07.79.1.21.3.41.49.51.15.08.21.09.52.09.27,0,.39,0,.52-.04.24-.08.57-.31.65-.45.04-.07.08-.12.1-.12.01,0,.03.13.03.3v.3h.35s.35-.02.35-.02v-1.25c.02-1.35,0-1.49-.15-1.82-.09-.19-.29-.4-.49-.5ZM49.99,31.45c0,.49-.32.84-.84.95-.24.05-.53.02-.65-.07-.11-.08-.18-.25-.18-.43,0-.33.16-.51.54-.6.3-.07.34-.07.77-.07h.37s0,.21,0,.21Z"/>
      <path class="st3" d="M53.21,29.21c-.21.03-.4.1-.52.19-.14.1-.31.29-.31.34,0,.06-.07.19-.09.19-.01,0-.02-.14-.02-.31v-.31h-.71v1.82s.01,1.82.01,1.82h.68l.02-1.02c.01-.87.02-1.05.07-1.19.12-.37.31-.61.55-.72.08-.04.23-.07.4-.08l.27-.02v-.3c.01-.16,0-.33,0-.36-.02-.07-.06-.08-.34-.03Z"/>
      <path class="st3" d="M55.85,29.25c-.25-.06-.65-.05-.87.01-.45.13-.84.47-1.05.89-.37.77-.24,1.79.3,2.33.2.2.48.37.73.44.21.06.79.06.99,0,.23-.07.5-.23.66-.39.14-.14.38-.55.36-.61,0-.01-.15-.03-.31-.04h-.3s-.07.1-.07.1c-.09.14-.26.3-.4.36-.07.03-.2.05-.39.05-.23,0-.31-.01-.44-.07-.17-.08-.39-.28-.48-.47-.06-.12-.15-.42-.15-.5,0-.03.26-.04,1.3-.04.71,0,1.31-.01,1.34-.03.06-.04.02-.49-.06-.82-.16-.64-.58-1.08-1.16-1.22ZM55.44,30.78c-.54,0-.99-.01-1-.03-.02-.03.06-.31.13-.45.09-.17.35-.41.52-.47.23-.09.57-.07.79.04.09.05.2.13.25.19.11.14.25.43.28.59l.02.12h-.98Z"/>
      <path class="st3" d="M65.91,31.31h1.29s0-.31,0-.31c0-.88-.48-1.56-1.22-1.75-.28-.07-.69-.06-.93.02-.5.17-.82.49-1.06,1.05-.15.35-.17,1.13-.04,1.48.18.47.49.82.9,1.03.25.12.26.13.62.14.42.01.61-.02.9-.15.27-.13.48-.35.62-.63.15-.3.14-.32-.22-.3-.24.01-.29.03-.32.07-.14.2-.22.29-.37.36-.15.07-.19.08-.47.08s-.33,0-.46-.08c-.18-.09-.34-.27-.44-.49-.08-.18-.14-.45-.11-.49.01-.01.6-.03,1.31-.03ZM64.59,30.74c-.05-.13.19-.61.38-.77.23-.18.6-.25.9-.15.18.05.39.23.5.41.09.15.18.47.15.52-.01.02-.37.03-.97.03-.8,0-.95,0-.96-.04Z"/>
      <path class="st3" d="M73.36,29.25c-.24-.06-.74-.06-.96.01-.46.13-.85.45-1.04.86-.16.33-.2.5-.21.91-.01.33,0,.42.05.62.1.36.25.63.48.85.39.38.86.53,1.5.47.44-.04.72-.18,1.03-.5.21-.23.34-.44.43-.76.09-.3.09-.97,0-1.23-.23-.66-.64-1.07-1.28-1.23ZM73.96,31.12c0,.3-.01.39-.07.53-.09.24-.21.41-.39.55-.18.14-.3.18-.61.18-.21,0-.26-.01-.42-.09-.38-.19-.6-.62-.6-1.2,0-.55.24-1.01.63-1.2.15-.08.22-.09.39-.09.12,0,.27.02.34.04.3.1.52.35.66.73.06.16.07.25.07.55Z"/>
      <path class="st3" d="M77.17,29.21c-.13,0-.29.02-.35.04-.27.1-.48.25-.61.43-.04.07-.09.12-.1.12-.01,0-.02-.11-.01-.25v-.25s-.35,0-.35,0h-.36v.45c0,.25-.01.56-.01.69,0,.13,0,.75,0,1.37v1.14h.71v-1.21s.02-1.21.02-1.21l.09-.2c.15-.31.34-.45.64-.49.26-.03.51.06.69.24q.26.26.27,1.65v1.21h.35c.25,0,.34,0,.37-.04.06-.07.02-2.34-.04-2.62-.14-.66-.65-1.08-1.33-1.07Z"/>
      <path class="st3" d="M94.35,31.24c-.14-.12-.41-.24-.78-.34-.18-.05-.43-.12-.55-.15-.41-.11-.58-.29-.55-.57.01-.12.03-.16.12-.24.14-.13.31-.17.61-.15.32.01.47.09.6.3.05.08.1.16.1.16.01.01.61,0,.63-.01,0,0-.01-.09-.05-.2-.13-.39-.43-.65-.88-.77-.28-.07-.69-.08-.93-.01-.39.1-.65.3-.8.59-.08.15-.09.2-.09.41,0,.6.29.86,1.28,1.14.47.13.65.21.75.3.27.25.16.61-.22.71-.3.08-.77.04-.96-.09-.11-.07-.22-.2-.27-.31-.04-.09-.05-.1-.13-.08-.05,0-.2.02-.33.02q-.27,0-.16.25c.05.12.14.24.28.38.32.32.59.41,1.2.41.57,0,.83-.08,1.12-.35.22-.2.27-.32.28-.65.01-.26,0-.28-.08-.47-.05-.1-.14-.23-.19-.27Z"/>
      <path class="st3" d="M99.81,29.25c-.26-.06-.79-.06-1.03,0-.22.06-.43.17-.6.32-.13.12-.32.48-.34.66l-.02.12h.34s.34-.02.34-.02l.03-.1c.05-.16.21-.33.38-.41.21-.1.56-.1.78,0,.23.11.36.32.39.65l.02.22-.16.02c-.09,0-.33.02-.53.03-.57.03-.89.08-1.15.21-.44.22-.63.57-.57,1.08.04.33.24.62.58.82.14.08.17.09.53.1.34.01.4,0,.56-.05.24-.09.49-.27.62-.44l.1-.14v.3s.03.3.03.3h.68v-1.33c.01-1.28.01-1.33-.05-1.51-.15-.46-.45-.72-.92-.84ZM100.07,31.45c0,.27-.07.46-.24.64-.19.2-.42.3-.77.31-.44.02-.61-.07-.67-.39-.07-.33.1-.59.45-.7.18-.05.62-.09,1-.08h.24s0,.21,0,.21Z"/>
      <path class="st3" d="M104.71,30.15c-.14-.45-.47-.78-.93-.9-.2-.05-.6-.05-.77,0-.21.07-.45.25-.56.41-.05.08-.11.15-.12.15-.01,0-.02-.11,0-.26v-.27s-.35,0-.35,0h-.36v3.65h.35s.35-.02.35-.02v-1.22s.03-1.22.03-1.22l.09-.17c.17-.33.39-.47.74-.48.28,0,.45.07.62.25.23.26.23.27.25,1.6,0,.64,0,1.19,0,1.21,0,.06.66.05.71,0,.03-.04.04-.3.02-1.3-.02-1.15-.02-1.27-.08-1.45Z"/>
      <path class="st3" d="M107.2,29.84c.37,0,.62.16.8.49.06.12.1.16.15.16.04,0,.19,0,.34,0h.27s-.02-.1-.02-.1c-.04-.18-.23-.53-.39-.7-.18-.2-.47-.36-.74-.44-.23-.06-.69-.06-.92.01-.78.22-1.26.92-1.26,1.82s.5,1.62,1.26,1.84c.26.08.8.07,1.04-.01.26-.09.4-.18.6-.39.2-.2.39-.54.42-.75.01-.11.01-.12-.06-.1-.04.01-.19.02-.34.02h-.27l-.05.13c-.07.16-.24.34-.44.45-.14.07-.19.09-.39.09-.53,0-.86-.32-.99-.97-.09-.49.04-.99.36-1.31.19-.19.32-.24.64-.24Z"/>
      <path class="st3" d="M111.68,29.38c-.37-.18-.84-.22-1.2-.12-.79.23-1.31,1.05-1.25,1.98.03.48.23.96.52,1.26.21.21.36.3.66.41.2.07.25.08.64.07h.42s.25-.13.25-.13c.19-.09.29-.17.41-.3.17-.18.42-.6.38-.63-.01,0-.17-.01-.35,0-.25,0-.33.02-.33.05,0,.07-.24.31-.38.38-.12.06-.19.07-.44.07-.26,0-.31,0-.46-.08-.19-.09-.37-.28-.47-.46-.06-.12-.15-.42-.15-.5,0-.03.26-.04,1.3-.04s1.31,0,1.33-.04c.04-.04,0-.55-.06-.82-.09-.4-.48-.91-.83-1.07ZM110.92,30.78h-1l.02-.08c.07-.28.15-.44.34-.63.22-.22.36-.29.63-.29.09,0,.23.01.31.04.29.09.52.33.64.68.11.31.2.28-.94.28Z"/>
      <path class="st3" d="M70.2,29.3s-.28.74-.76,2.17c-.11.33-.21.6-.23.6-.04.01-.01.08-.52-1.43-.23-.7-.43-1.3-.44-1.32-.02-.05-.01-.05-.47-.03l-.36.02.06.13c.04.07.12.31.2.52.21.56.71,1.88.95,2.47.11.28.2.52.2.54,0,.07-.17.41-.25.5-.13.16-.23.19-.53.19h-.26s0,.18,0,.18c0,.1,0,.21-.01.26-.02.18-.02.18.42.17.36,0,.42-.02.54-.08.22-.12.3-.19.43-.39.17-.25.19-.31,1.05-2.64.11-.3.3-.8.41-1.11.12-.31.22-.61.23-.66l.02-.09h-.33c-.18-.01-.34,0-.36,0Z"/>
      <path class="st3" d="M90.84,29.29s-.18,0-.34,0h-.27s0,1.82,0,1.82v1.82h.69v-1.82c.01-1,0-1.82,0-1.82-.01,0-.05,0-.08,0Z"/>
    </g>
    <g>
      <path class="st4" d="M65.26,20.45v3.28h1.59c.88,0,1.6,0,1.61-.03,0-.01,0-4.06,0-9l-.02-8.98h-1.59c-.88,0-1.6.01-1.61.03,0,.01,0,2.59,0,5.72,0,3.13.02,7.17.02,8.97Z"/>
      <path class="st4" d="M43.06,16.25v7.47h3.33v-14.95h5.44v-1.48c-.01-.95-.03-1.48-.05-1.48-.02,0-3.22,0-7.12,0h-7.09v2.95h2.75s2.74.02,2.74.02v7.47Z"/>
      <path class="st4" d="M97.13,20.19c-.24-.4-.6-.99-.79-1.31-.71-1.18-.85-1.4-1.03-1.67-.1-.15-.18-.29-.18-.31,0-.02.14-.08.31-.15,1.38-.55,2.47-1.7,2.93-3.11.26-.8.36-1.64.3-2.51-.08-1.15-.37-2.06-.93-2.91-.24-.37-.93-1.06-1.31-1.31-.82-.54-1.68-.84-2.78-.99-.48-.06-.7-.07-4.37-.08h-3.87s0,8.93,0,8.93v8.95h3.35v-6.32h3.12l.08.13c.04.08.13.23.19.35.07.12.2.36.3.53.1.17.21.38.26.45s.27.47.49.88c.23.4.64,1.14.92,1.64.28.5.62,1.1.76,1.35s.32.56.4.71l.15.28h1.92c1.05,0,1.92,0,1.92-.01,0-.02-.56-.94-2.13-3.52ZM94.67,13.72c-.28.28-.9.59-1.44.71-.6.13-.84.14-2.68.14h-1.78v-2.9s-.02-2.9-.02-2.9h.65c1.11-.03,2.82,0,3.22.03.63.06,1.08.21,1.52.49.35.23.74.64.89.94.48.99.45,2.22-.08,3.1-.09.14-.21.31-.27.38Z"/>
      <path class="st4" d="M61.73,22.15c.44-.5.84-1.16,1.04-1.75.14-.41.3-.37-1.31-.37h-1.39l-.16.19c-.51.64-1.01.95-1.87,1.16-.24.06-.37.07-.86.07s-.61,0-.85-.07c-.62-.16-1.03-.39-1.43-.78-.43-.42-.67-.82-.85-1.41-.05-.16-.21-.98-.21-1.07,0-.01,2.05-.03,4.56-.03s4.59,0,4.62-.02c.07-.02.07-.04.09-.8.06-2.05-.23-3.2-1.09-4.48-.29-.43-.98-1.1-1.43-1.4-1.18-.78-2.65-1.11-4.25-.94-1.91.19-3.54,1.08-4.53,2.46-.73,1.02-1.1,2.06-1.24,3.47-.18,1.75.16,3.47.92,4.7.88,1.43,2.34,2.45,4.03,2.81.37.08,1.29.19,1.58.19s1.19-.11,1.52-.19c1.29-.3,2.39-.91,3.12-1.73ZM54.17,14.67c.31-.63.9-1.23,1.51-1.54.2-.1.65-.23.93-.27.27-.03.67-.01.99.05.71.14,1.32.51,1.72,1.04.23.31.29.42.41.79.09.29.2.89.17.93,0,0-1.38.03-3.03.03-2.94.01-3.02,0-3.02-.05,0-.09.24-.81.33-.99Z"/>
      <path class="st4" d="M82.34,13.37c-.17-.33-.55-.87-.78-1.13-.56-.63-1.34-1.14-2.23-1.47-.91-.33-2.13-.46-3.25-.33-.49.06-.93.16-1.55.36-.33.11-1,.46-1.36.72-.43.3-1.16,1.04-1.43,1.43-.7,1.03-1.04,2-1.2,3.41-.08.71-.08,1.21.01,1.93.16,1.25.45,2.06,1.04,2.94.64.95,1.43,1.64,2.5,2.16.82.4,1.43.56,2.47.65.55.05.63.05,1.13,0,1.56-.15,2.85-.7,3.8-1.62.42-.4.82-.99,1.06-1.52.12-.27.32-.8.32-.83,0,0-.64,0-1.42,0h-1.42l-.05.09s-.18.22-.34.38c-.44.44-.86.67-1.55.86-.26.07-.38.09-.85.1-.48.01-.58,0-.84-.06-.81-.18-1.39-.54-1.85-1.15-.36-.48-.66-1.32-.69-1.95v-.2s4.55-.02,4.55-.02l4.57-.02.02-.08c.05-.21.1-1,.08-1.47-.04-1.22-.31-2.34-.74-3.15ZM79.75,15.69c-.06,0-1.42.02-3.01.02h-2.89s.02-.13.02-.13c.03-.2.23-.79.34-.99.16-.28.32-.51.52-.73.79-.85,1.77-1.17,2.88-.93.9.19,1.6.74,1.96,1.52.11.24.24.75.27,1.06l.02.16-.12.02Z"/>
      <path class="st4" d="M112.59,23.69s-.06-.11-.14-.21c-.15-.2-.42-.59-1.08-1.56-.23-.34-.52-.76-.64-.94-.12-.18-.43-.62-.68-.98-.71-1.04-.88-1.28-1.44-2.09l-.53-.76.14-.2c.15-.2.21-.28.6-.87.13-.2.34-.5.46-.68.12-.17.23-.33.25-.36.05-.08.32-.47.5-.73.09-.14.31-.45.47-.69.17-.24.42-.61.56-.81.14-.21.38-.55.53-.77.15-.22.38-.56.52-.77.14-.21.29-.42.33-.46.04-.05.08-.11.08-.13,0-.03-.36-.04-1.8-.04h-1.81s-.18.27-.18.27c-.1.15-.45.67-.78,1.17-1.12,1.71-1.59,2.41-1.63,2.47q-.05.06-.11-.02s-.62-.92-1.3-1.94c-.68-1.02-1.26-1.89-1.29-1.92-.05-.05-.15-.06-1.91-.05-1.02,0-1.86.02-1.86.03,0,0,.03.06.07.11.08.1.45.64.9,1.3.16.23.33.49.4.58.18.25,1.09,1.58,1.38,2,.31.46.82,1.2,1.01,1.48.08.11.24.34.36.52.33.46.33.48.27.59-.07.11-.47.7-.71,1.04-.1.14-.29.43-.44.64-.23.34-.71,1.04-1.11,1.61-.07.1-.32.46-.55.8-1,1.46-1.47,2.13-1.57,2.24-.04.04-.08.09-.08.11,0,.03,3.53.04,3.61,0,.04-.02.24-.27.24-.31,0,0,2.1-3.17,2.25-3.4.05-.08.15-.22.21-.33l.11-.18.06.07c.05.07.4.59,1.07,1.62.55.84.69,1.07.84,1.3.09.14.27.42.4.62.13.2.28.42.32.49l.08.13h1.8c1.16,0,1.8,0,1.8-.03Z"/>
      <path class="st4" d="M81.94,27.87v1s.01,1,.01,1l-.18-.2c-.3-.34-.59-.47-1-.47-.73,0-1.3.48-1.52,1.28-.09.32-.09,1,0,1.29.14.44.34.74.67.96.31.21.46.25.87.25q.34,0,.58-.13c.15-.07.28-.17.34-.23.05-.06.13-.15.18-.21l.09-.1v.31s-.02.31-.02.31h.74v-2.53s.01-2.53.01-2.53h-.79ZM81.85,31.76c-.14.28-.25.4-.48.51-.18.09-.23.1-.44.1-.39,0-.65-.16-.83-.52-.23-.45-.23-1.04,0-1.48.14-.26.36-.44.6-.49.22-.05.25-.05.47,0,.31.07.49.23.67.61.09.2.09.2.09.64s0,.45-.09.64Z"/>
      <path class="st4" d="M90.86,27.95c-.07-.06-.12-.08-.24-.08-.09,0-.19.02-.23.04-.27.14-.27.59,0,.74.22.11.48.03.62-.19.09-.15.04-.36-.15-.51Z"/>
      <path class="st4" d="M44.45,28.71l.23-.11h.4c.4,0,.4,0,.61.1.27.13.41.28.56.58l.12.25h.69l-.02-.16c-.03-.25-.23-.62-.46-.85-.21-.21-.54-.4-.83-.49-.19-.06-.8-.09-1.04-.05-.68.1-1.28.54-1.59,1.17-.15.31-.24.62-.28,1.05-.06.57.07,1.2.35,1.7.25.44.68.8,1.15.98.41.15,1.16.14,1.59-.03.47-.18.76-.44.96-.85.11-.24.2-.5.17-.53,0,0-.16-.02-.34-.02-.26,0-.33,0-.35.04-.01.02-.05.12-.09.2-.09.2-.33.45-.55.55-.22.1-.45.14-.77.13-.23-.01-.3-.03-.47-.11-.38-.18-.67-.54-.82-1.04-.06-.2-.07-.28-.07-.76,0-.58.03-.78.18-1.08.13-.26.42-.55.68-.68Z"/>
      <path class="st4" d="M62.44,30.44c-.21-.07-.25-.13-.11-.17.28-.09.56-.38.64-.68.09-.33.02-.74-.18-1-.25-.33-.6-.49-1.2-.54-.53-.05-2.03-.04-2.05,0,0,.02-.01,1.13,0,2.46v2.42s1.12,0,1.12,0c1.19,0,1.39-.02,1.75-.16.43-.17.7-.47.79-.87.07-.33.04-.65-.09-.91-.14-.28-.32-.43-.66-.55ZM60.29,28.93l.02-.23h.76c.75.02.76.02.89.09.2.11.28.28.28.58,0,.27-.03.36-.21.53-.17.16-.38.2-1.12.2-.52,0-.6,0-.62-.05-.02-.06-.02-.83,0-1.12ZM62.21,32.1c-.18.14-.31.16-1.14.16-.67,0-.77,0-.78-.05-.02-.06-.02-1.45,0-1.47,0-.01.36-.02.78-.02.75,0,.76,0,.92.07.25.12.33.19.41.35.15.32.06.77-.18.96Z"/>
      <path class="st4" d="M87.3,28.06c-.35-.04-1.69-.06-1.87-.02h-.07s0,2.45,0,2.45v2.44s.72,0,.72,0c1.17.01,1.62-.05,2.15-.31.38-.19.73-.53.91-.9.23-.45.26-.62.26-1.25,0-.51,0-.57-.08-.82-.28-.93-.99-1.48-2.04-1.6ZM88.39,31.57c-.18.28-.46.48-.8.6-.2.07-.26.08-.85.09h-.63s0-1.53,0-1.53c0-.85,0-1.65.02-1.79l.02-.25h.63c.58.02.64.03.82.1.52.2.88.59,1.02,1.11.15.55.05,1.26-.23,1.66Z"/>
      <path class="st4" d="M96.29,30.71v-.8s.45-.01.45-.01h.45s0-.31,0-.31v-.29s-.12,0-.12,0c-.07,0-.27-.01-.45-.02l-.33-.02v-.48s-.01-.48-.01-.48h-.71v.98h-.28s-.29.02-.29.02v.3s0,.3,0,.3h.28s.28.03.28.03l.02,1.08c.01,1.04.02,1.09.08,1.27.09.26.27.46.51.59l.19.11h.39c.26,0,.4-.01.43-.04.02-.02.04-.14.04-.29v-.26s-.26,0-.26,0c-.6,0-.68-.21-.66-1.66Z"/>
      <path class="st4" d="M50.07,29.37c-.28-.14-.78-.21-1.12-.16-.41.06-.76.24-.95.49-.11.14-.27.55-.24.62.01.04.07.04.34.04h.32s.03-.1.03-.1c.05-.16.22-.34.39-.42.15-.07.19-.07.42-.06.21,0,.28.03.4.09.18.1.31.36.34.65l.02.2-.41.02c-.55.03-1.06.09-1.27.17-.33.11-.62.39-.7.67-.06.2-.02.62.07.79.1.21.3.41.49.51.15.08.21.09.52.09.27,0,.39,0,.52-.04.24-.08.57-.31.65-.45.04-.07.08-.12.1-.12.01,0,.03.13.03.3v.3h.35s.35-.02.35-.02v-1.25c.02-1.35,0-1.49-.15-1.82-.09-.19-.29-.4-.49-.5ZM49.99,31.45c0,.49-.32.84-.84.95-.24.05-.53.02-.65-.07-.11-.08-.18-.25-.18-.43,0-.33.16-.51.54-.6.3-.07.34-.07.77-.07h.37s0,.21,0,.21Z"/>
      <path class="st4" d="M53.21,29.21c-.21.03-.4.1-.52.19-.14.1-.31.29-.31.34,0,.06-.07.19-.09.19-.01,0-.02-.14-.02-.31v-.31h-.71v1.82s.01,1.82.01,1.82h.68l.02-1.02c.01-.87.02-1.05.07-1.19.12-.37.31-.61.55-.72.08-.04.23-.07.4-.08l.27-.02v-.3c.01-.16,0-.33,0-.36-.02-.07-.06-.08-.34-.03Z"/>
      <path class="st4" d="M55.85,29.25c-.25-.06-.65-.05-.87.01-.45.13-.84.47-1.05.89-.37.77-.24,1.79.3,2.33.2.2.48.37.73.44.21.06.79.06.99,0,.23-.07.5-.23.66-.39.14-.14.38-.55.36-.61,0-.01-.15-.03-.31-.04h-.3s-.07.1-.07.1c-.09.14-.26.3-.4.36-.07.03-.2.05-.39.05-.23,0-.31-.01-.44-.07-.17-.08-.39-.28-.48-.47-.06-.12-.15-.42-.15-.5,0-.03.26-.04,1.3-.04.71,0,1.31-.01,1.34-.03.06-.04.02-.49-.06-.82-.16-.64-.58-1.08-1.16-1.22ZM55.44,30.78c-.54,0-.99-.01-1-.03-.02-.03.06-.31.13-.45.09-.17.35-.41.52-.47.23-.09.57-.07.79.04.09.05.2.13.25.19.11.14.25.43.28.59l.02.12h-.98Z"/>
      <path class="st4" d="M65.91,31.31h1.29s0-.31,0-.31c0-.88-.48-1.56-1.22-1.75-.28-.07-.69-.06-.93.02-.5.17-.82.49-1.06,1.05-.15.35-.17,1.13-.04,1.48.18.47.49.82.9,1.03.25.12.26.13.62.14.42.01.61-.02.9-.15.27-.13.48-.35.62-.63.15-.3.14-.32-.22-.3-.24.01-.29.03-.32.07-.14.2-.22.29-.37.36-.15.07-.19.08-.47.08s-.33,0-.46-.08c-.18-.09-.34-.27-.44-.49-.08-.18-.14-.45-.11-.49.01-.01.6-.03,1.31-.03ZM64.59,30.74c-.05-.13.19-.61.38-.77.23-.18.6-.25.9-.15.18.05.39.23.5.41.09.15.18.47.15.52-.01.02-.37.03-.97.03-.8,0-.95,0-.96-.04Z"/>
      <path class="st4" d="M73.36,29.25c-.24-.06-.74-.06-.96.01-.46.13-.85.45-1.04.86-.16.33-.2.5-.21.91-.01.33,0,.42.05.62.1.36.25.63.48.85.39.38.86.53,1.5.47.44-.04.72-.18,1.03-.5.21-.23.34-.44.43-.76.09-.3.09-.97,0-1.23-.23-.66-.64-1.07-1.28-1.23ZM73.96,31.12c0,.3-.01.39-.07.53-.09.24-.21.41-.39.55-.18.14-.3.18-.61.18-.21,0-.26-.01-.42-.09-.38-.19-.6-.62-.6-1.2,0-.55.24-1.01.63-1.2.15-.08.22-.09.39-.09.12,0,.27.02.34.04.3.1.52.35.66.73.06.16.07.25.07.55Z"/>
      <path class="st4" d="M77.17,29.21c-.13,0-.29.02-.35.04-.27.1-.48.25-.61.43-.04.07-.09.12-.1.12-.01,0-.02-.11-.01-.25v-.25s-.35,0-.35,0h-.36v.45c0,.25-.01.56-.01.69,0,.13,0,.75,0,1.37v1.14h.71v-1.21s.02-1.21.02-1.21l.09-.2c.15-.31.34-.45.64-.49.26-.03.51.06.69.24q.26.26.27,1.65v1.21h.35c.25,0,.34,0,.37-.04.06-.07.02-2.34-.04-2.62-.14-.66-.65-1.08-1.33-1.07Z"/>
      <path class="st4" d="M94.35,31.24c-.14-.12-.41-.24-.78-.34-.18-.05-.43-.12-.55-.15-.41-.11-.58-.29-.55-.57.01-.12.03-.16.12-.24.14-.13.31-.17.61-.15.32.01.47.09.6.3.05.08.1.16.1.16.01.01.61,0,.63-.01,0,0-.01-.09-.05-.2-.13-.39-.43-.65-.88-.77-.28-.07-.69-.08-.93-.01-.39.1-.65.3-.8.59-.08.15-.09.2-.09.41,0,.6.29.86,1.28,1.14.47.13.65.21.75.3.27.25.16.61-.22.71-.3.08-.77.04-.96-.09-.11-.07-.22-.2-.27-.31-.04-.09-.05-.1-.13-.08-.05,0-.2.02-.33.02q-.27,0-.16.25c.05.12.14.24.28.38.32.32.59.41,1.2.41.57,0,.83-.08,1.12-.35.22-.2.27-.32.28-.65.01-.26,0-.28-.08-.47-.05-.1-.14-.23-.19-.27Z"/>
      <path class="st4" d="M99.81,29.25c-.26-.06-.79-.06-1.03,0-.22.06-.43.17-.6.32-.13.12-.32.48-.34.66l-.02.12h.34s.34-.02.34-.02l.03-.1c.05-.16.21-.33.38-.41.21-.1.56-.1.78,0,.23.11.36.32.39.65l.02.22-.16.02c-.09,0-.33.02-.53.03-.57.03-.89.08-1.15.21-.44.22-.63.57-.57,1.08.04.33.24.62.58.82.14.08.17.09.53.1.34.01.4,0,.56-.05.24-.09.49-.27.62-.44l.1-.14v.3s.03.3.03.3h.68v-1.33c.01-1.28.01-1.33-.05-1.51-.15-.46-.45-.72-.92-.84ZM100.07,31.45c0,.27-.07.46-.24.64-.19.2-.42.3-.77.31-.44.02-.61-.07-.67-.39-.07-.33.1-.59.45-.7.18-.05.62-.09,1-.08h.24s0,.21,0,.21Z"/>
      <path class="st4" d="M104.71,30.15c-.14-.45-.47-.78-.93-.9-.2-.05-.6-.05-.77,0-.21.07-.45.25-.56.41-.05.08-.11.15-.12.15-.01,0-.02-.11,0-.26v-.27s-.35,0-.35,0h-.36v3.65h.35s.35-.02.35-.02v-1.22s.03-1.22.03-1.22l.09-.17c.17-.33.39-.47.74-.48.28,0,.45.07.62.25.23.26.23.27.25,1.6,0,.64,0,1.19,0,1.21,0,.06.66.05.71,0,.03-.04.04-.3.02-1.3-.02-1.15-.02-1.27-.08-1.45Z"/>
      <path class="st4" d="M107.2,29.84c.37,0,.62.16.8.49.06.12.1.16.15.16.04,0,.19,0,.34,0h.27s-.02-.1-.02-.1c-.04-.18-.23-.53-.39-.7-.18-.2-.47-.36-.74-.44-.23-.06-.69-.06-.92.01-.78.22-1.26.92-1.26,1.82s.5,1.62,1.26,1.84c.26.08.8.07,1.04-.01.26-.09.4-.18.6-.39.2-.2.39-.54.42-.75.01-.11.01-.12-.06-.1-.04.01-.19.02-.34.02h-.27l-.05.13c-.07.16-.24.34-.44.45-.14.07-.19.09-.39.09-.53,0-.86-.32-.99-.97-.09-.49.04-.99.36-1.31.19-.19.32-.24.64-.24Z"/>
      <path class="st4" d="M111.68,29.38c-.37-.18-.84-.22-1.2-.12-.79.23-1.31,1.05-1.25,1.98.03.48.23.96.52,1.26.21.21.36.3.66.41.2.07.25.08.64.07h.42s.25-.13.25-.13c.19-.09.29-.17.41-.3.17-.18.42-.6.38-.63-.01,0-.17-.01-.35,0-.25,0-.33.02-.33.05,0,.07-.24.31-.38.38-.12.06-.19.07-.44.07-.26,0-.31,0-.46-.08-.19-.09-.37-.28-.47-.46-.06-.12-.15-.42-.15-.5,0-.03.26-.04,1.3-.04s1.31,0,1.33-.04c.04-.04,0-.55-.06-.82-.09-.4-.48-.91-.83-1.07ZM110.92,30.78h-1l.02-.08c.07-.28.15-.44.34-.63.22-.22.36-.29.63-.29.09,0,.23.01.31.04.29.09.52.33.64.68.11.31.2.28-.94.28Z"/>
      <path class="st4" d="M70.2,29.3s-.28.74-.76,2.17c-.11.33-.21.6-.23.6-.04.01-.01.08-.52-1.43-.23-.7-.43-1.3-.44-1.32-.02-.05-.01-.05-.47-.03l-.36.02.06.13c.04.07.12.31.2.52.21.56.71,1.88.95,2.47.11.28.2.52.2.54,0,.07-.17.41-.25.5-.13.16-.23.19-.53.19h-.26s0,.18,0,.18c0,.1,0,.21-.01.26-.02.18-.02.18.42.17.36,0,.42-.02.54-.08.22-.12.3-.19.43-.39.17-.25.19-.31,1.05-2.64.11-.3.3-.8.41-1.11.12-.31.22-.61.23-.66l.02-.09h-.33c-.18-.01-.34,0-.36,0Z"/>
      <path class="st4" d="M90.84,29.29s-.18,0-.34,0h-.27s0,1.82,0,1.82v1.82h.69v-1.82c.01-1,0-1.82,0-1.82-.01,0-.05,0-.08,0Z"/>
    </g>
  </g>
  <g>
    <g>
      <path class="st2" d="M18.24,35.13s0,0,0,0c-.31,0-.64,0-.98,0h-.36c-.32,0-.63,0-.92,0,0,0,0,0,0,0H7.88l6.28,3.48c1.8,1.18,4.12,1.18,5.92,0l6.28-3.48h-8.12Z"/>
      <path class="st0" d="M23.68.5h-13.11C4.96.5.41,5.05.41,10.65v14.36c0,2.17.68,4.17,1.83,5.82.76,1.08,1.72,2.01,2.84,2.72-.04-.15-.07-.3-.08-.45,0-.56.01-1.85.01-3.34,0-1.14,0-1.94,0-2.52,0-.6.01-.96.03-1.22,0-.09.02-.17.03-.26.4-2.42,2.28-4.52,4.99-5.87h.02v1.55c0,1.21,0,1.56-.03,1.58-.02.01-.15.07-.29.13-.49.21-1.01.61-1.33,1.04-.19.25-.41.68-.52,1.02-.17.52-.18.64-.18,2.71,0,1.82,0,1.9.06,2.11.16.58.47.95.93,1.1.15.05.23.06.45.05.29-.01.45-.07.62-.24.17-.16.22-.29.22-.55,0-.2-.01-.25-.08-.39-.09-.16-.17-.23-.43-.38-.2-.11-.39-.31-.44-.46-.03-.08-.04-.47-.05-1.54,0-1.2,0-1.46.04-1.64.18-.9.89-1.51,1.74-1.52.31,0,.51.05.83.22.44.22.84.76.96,1.26.06.25.06,3.05,0,3.23-.05.17-.21.33-.42.44-.36.17-.48.34-.51.71-.02.37.11.61.41.77.19.1.6.13.82.06.19-.07.48-.26.6-.41.3-.37.36-.57.4-1.18.03-.54,0-3.37-.03-3.71-.09-.76-.43-1.45-.99-2-.38-.38-.74-.6-1.21-.77-.15-.05-.19-.08-.2-.14,0-.04,0-.66,0-1.38.02-1.39.03-1.49.18-1.95.02-.06.04-.12.06-.16.06-.16.11-.23.18-.28.03-.02.08-.05.14-.07.13-.04.27-.09.41-.13.02,0,.04,0,.06-.01.1-.02.2-.04.23-.05.07-.02.11.03.31.41.02.03.03.06.04.08.28.53.48.85.79,1.27.87,1.18,1.8,2.02,3.2,2.87.04.03.09.05.11.05.06,0,1.12-.75,1.54-1.08.65-.53,1.65-1.66,2.09-2.37.1-.16.13-.22.41-.74,0-.02.02-.03.03-.05.1-.18.2-.35.23-.37.03-.03.11-.03.27-.02.06,0,.11.01.17.02.15.04.29.09.43.14.14.06.24.14.28.2.02.04.04.08.05.13.12.37.17,1.05.1,1.56-.14.96-.35,1.9-.64,2.86-.07.24-.13.45-.13.47,0,.02-.08.08-.19.12-.74.33-1.28,1.01-1.41,1.76-.05.3-.02.97.06,1.22.17.53.49.96.93,1.25.36.24.66.35,1.07.39,1.05.12,2.03-.39,2.47-1.29.25-.51.32-1.02.21-1.58-.14-.74-.64-1.37-1.39-1.74-.14-.07-.16-.09-.15-.14.17-.58.39-1.56.52-2.32.12-.72.14-.86.19-1.55l.04-.5c2.62,1.35,4.43,3.42,4.82,5.79.05.34.08.69.08,1.04,0,.02,0,.03,0,.05v6.07c0,.22-.03.43-.09.62,1.12-.72,2.08-1.64,2.84-2.73,1.16-1.65,1.83-3.66,1.83-5.82v-14.36c0-5.61-4.55-10.15-10.15-10.15ZM17.12,17.83c-3.24,0-5.86-2.8-5.86-6.26s2.62-6.26,5.86-6.26,5.86,2.8,5.86,6.26-2.62,6.26-5.86,6.26ZM23.6,26.68c.01.17,0,.23-.06.37-.1.22-.26.38-.46.44-.26.08-.39.09-.57.03-.48-.16-.72-.73-.49-1.18.21-.43.67-.6,1.08-.4.3.14.48.41.5.74Z"/>
    </g>
    <g>
      <path class="st1" d="M22.02,26.34c-.22.45.01,1.02.49,1.18.18.06.31.06.57-.03.19-.06.36-.22.46-.44.06-.14.07-.2.06-.37-.02-.33-.2-.6-.5-.74-.41-.19-.87-.02-1.08.4Z"/>
      <path class="st1" d="M29.24,26.82c0-.35-.03-.7-.08-1.04-.39-2.37-2.2-4.44-4.82-5.79l-.04.5c-.05.69-.07.83-.19,1.55-.13.77-.35,1.75-.52,2.32-.01.05,0,.07.15.14.74.37,1.25,1,1.39,1.74.1.56.03,1.07-.21,1.58-.44.9-1.43,1.41-2.47,1.29-.41-.05-.71-.15-1.07-.39-.44-.28-.76-.71-.93-1.25-.08-.25-.11-.91-.06-1.22.13-.75.67-1.43,1.41-1.76.1-.05.19-.1.19-.12,0-.02.06-.24.13-.47.29-.96.51-1.9.64-2.86.07-.51.03-1.19-.1-1.56-.02-.05-.03-.09-.05-.13-.04-.07-.14-.14-.28-.2-.14-.05-.29-.09-.43-.14-.06-.01-.12-.02-.17-.02-.16-.01-.23,0-.27.02-.03.02-.13.19-.23.37,0,.02-.02.03-.03.05-.28.51-.31.58-.41.74-.44.71-1.43,1.85-2.09,2.37-.42.34-1.48,1.08-1.54,1.08-.02,0-.07-.02-.11-.05-1.4-.85-2.33-1.69-3.2-2.87-.31-.43-.51-.74-.79-1.27-.01-.03-.03-.06-.04-.08-.2-.38-.24-.43-.31-.41-.03,0-.14.03-.23.05-.02,0-.04,0-.06.01-.14.04-.27.08-.41.13-.06.02-.1.05-.14.07-.07.05-.12.12-.18.28-.02.05-.04.1-.06.16-.15.46-.16.55-.18,1.95,0,.72,0,1.34,0,1.38.01.06.05.08.2.14.47.17.83.39,1.21.77.56.55.9,1.24.99,2,.04.35.07,3.17.03,3.71-.04.61-.1.81-.4,1.18-.12.15-.4.34-.6.41-.22.07-.63.05-.82-.06-.3-.15-.44-.4-.41-.77.02-.37.15-.54.51-.71.21-.1.37-.26.42-.44.06-.19.06-2.98,0-3.23-.11-.49-.52-1.03-.96-1.26-.33-.17-.53-.22-.83-.22-.85,0-1.56.62-1.74,1.52-.04.19-.04.45-.04,1.64,0,1.06.02,1.45.05,1.54.05.15.24.35.44.46.26.15.34.21.43.38.07.13.08.19.08.39,0,.26-.06.4-.22.55-.17.17-.33.22-.62.24-.21,0-.3,0-.45-.05-.46-.15-.77-.52-.93-1.1-.06-.21-.06-.28-.06-2.11,0-2.08,0-2.19.18-2.71.11-.34.33-.77.52-1.02.33-.43.84-.83,1.33-1.04.14-.06.27-.12.29-.13.03-.02.03-.37.03-1.58v-1.55h-.02c-2.71,1.35-4.58,3.46-4.99,5.87-.01.08-.02.17-.03.26-.02.26-.02.62-.03,1.22,0,.58,0,1.38,0,2.52,0,1.49,0,2.78-.01,3.34.01.16.04.31.08.45.05.16.11.31.19.45.37.67,1.09,1.12,1.91,1.12h8.81s0,0,0,0c.29,0,.6,0,.92,0h.36c.34,0,.66,0,.98,0,0,0,0,0,0,0h8.81c.82,0,1.54-.45,1.91-1.12.08-.14.14-.29.19-.44.06-.2.09-.41.09-.62v-6.07s0-.03,0-.05Z"/>
      <ellipse class="st1" cx="17.12" cy="11.56" rx="5.86" ry="6.26"/>
    </g>
  </g>
</svg>