<?xml version="1.0" encoding="UTF-8"?>
<svg id="Layer_1" xmlns="http://www.w3.org/2000/svg" version="1.1" xmlns:xlink="http://www.w3.org/1999/xlink" viewBox="0 0 107 38">
  <!-- Generator: Adobe Illustrator 29.8.2, SVG Export Plug-In . SVG Version: 2.1.1 Build 3)  -->
  <defs>
    <style>
      .st0 {
        fill: url(#linear-gradient2);
      }

      .st1 {
        fill: #fff;
      }

      .st2 {
        fill: url(#linear-gradient1);
      }

      .st3 {
        fill: #172b38;
      }

      .st4 {
        fill: url(#linear-gradient);
      }
    </style>
    <linearGradient id="linear-gradient" x1="35.54" y1="19" x2="106.71" y2="19" gradientUnits="userSpaceOnUse">
      <stop offset="0" stop-color="#172b38"/>
      <stop offset="1" stop-color="#33517a"/>
    </linearGradient>
    <linearGradient id="linear-gradient1" x1="7.38" y1="35.43" x2="24.91" y2="35.43" gradientUnits="userSpaceOnUse">
      <stop offset="0" stop-color="#0c77c9"/>
      <stop offset="1" stop-color="#15558d"/>
    </linearGradient>
    <linearGradient id="linear-gradient2" x1=".29" y1="16.18" x2="31.99" y2="16.18" xlink:href="#linear-gradient1"/>
  </defs>
  <g>
    <g>
      <path class="st3" d="M61.81,19.42v3.11h1.51c.83,0,1.52,0,1.53-.02,0-.01,0-3.86,0-8.54l-.02-8.52h-1.51c-.83,0-1.52.01-1.53.03,0,.01,0,2.46,0,5.43,0,2.97.02,6.8.02,8.51Z"/>
      <path class="st3" d="M40.75,15.45v7.09h3.16v-14.19h5.16v-1.4c-.01-.91-.03-1.4-.04-1.4-.01,0-3.06,0-6.76,0h-6.73v2.8h2.61s2.6.01,2.6.01v7.08Z"/>
      <path class="st3" d="M92.05,19.18c-.23-.38-.57-.94-.75-1.25-.68-1.12-.8-1.33-.97-1.59-.09-.15-.17-.28-.17-.3,0-.01.13-.08.29-.15,1.31-.52,2.34-1.62,2.78-2.95.25-.76.34-1.56.28-2.38-.08-1.09-.35-1.95-.88-2.76-.23-.35-.88-1-1.24-1.24-.78-.51-1.59-.8-2.64-.93-.45-.06-.66-.06-4.15-.07h-3.67s0,8.48,0,8.48v8.49h3.18v-5.99h2.96l.07.12c.04.07.12.22.18.34.06.11.19.34.28.5.09.16.2.36.24.43s.25.45.47.83c.22.38.61,1.08.88,1.56.26.47.59,1.05.72,1.28s.3.53.38.67l.14.26h1.83c1,0,1.82,0,1.82-.01,0-.02-.53-.9-2.02-3.34ZM89.71,13.05c-.26.27-.85.56-1.36.67-.57.12-.79.13-2.55.13h-1.69v-2.75s-.01-2.75-.01-2.75h.61c1.05-.02,2.68,0,3.05.03.6.06,1.03.2,1.44.47.34.22.7.61.84.89.46.93.43,2.1-.07,2.94-.08.14-.2.3-.26.36Z"/>
      <path class="st3" d="M58.46,21.04c.42-.47.79-1.1.98-1.66.13-.39.28-.35-1.24-.35h-1.32l-.15.18c-.48.6-.96.9-1.77,1.1-.23.06-.35.07-.82.07s-.58,0-.81-.07c-.58-.15-.97-.37-1.35-.74-.4-.4-.64-.78-.81-1.34-.05-.15-.2-.93-.2-1.02,0-.01,1.95-.02,4.33-.02s4.35,0,4.39-.02c.06-.01.06-.04.08-.76.05-1.94-.21-3.04-1.03-4.25-.27-.41-.93-1.05-1.35-1.33-1.12-.74-2.51-1.05-4.04-.9-1.82.18-3.36,1.02-4.3,2.34-.69.97-1.05,1.96-1.18,3.29-.17,1.66.15,3.29.87,4.46.84,1.36,2.22,2.32,3.82,2.67.35.07,1.22.18,1.5.18s1.13-.1,1.44-.18c1.23-.28,2.26-.86,2.96-1.64ZM51.29,13.95c.3-.6.86-1.17,1.43-1.46.19-.1.62-.22.88-.25.25-.03.64-.01.93.05.67.13,1.25.48,1.63.99.22.3.28.4.39.75.09.27.19.85.16.88,0,0-1.31.02-2.88.03-2.79.01-2.86,0-2.86-.04,0-.08.23-.77.32-.94Z"/>
      <path class="st3" d="M78.02,12.71c-.16-.31-.52-.83-.74-1.07-.53-.6-1.27-1.08-2.12-1.39-.86-.31-2.02-.43-3.09-.31-.47.05-.88.15-1.47.34-.31.1-.95.44-1.29.68-.4.29-1.1.99-1.35,1.35-.66.97-.99,1.9-1.14,3.23-.08.68-.07,1.15.01,1.83.15,1.18.43,1.96.99,2.79.6.9,1.36,1.56,2.37,2.04.77.38,1.36.53,2.34.61.52.04.6.04,1.07,0,1.48-.15,2.7-.67,3.6-1.54.4-.38.78-.93,1.01-1.45.11-.25.31-.76.31-.79,0,0-.61,0-1.35,0h-1.35l-.04.09s-.17.21-.32.36c-.42.42-.82.64-1.47.82-.25.07-.37.08-.8.09-.45.01-.55,0-.8-.05-.77-.17-1.32-.52-1.76-1.09-.34-.45-.63-1.25-.66-1.85v-.19s4.32-.01,4.32-.01h4.33s.02-.09.02-.09c.05-.2.09-.95.08-1.4-.04-1.15-.29-2.22-.7-2.99ZM75.55,14.92c-.06,0-1.34.02-2.85.02h-2.74s.02-.12.02-.12c.03-.19.22-.75.33-.94.15-.27.3-.48.49-.69.75-.81,1.68-1.11,2.73-.88.85.18,1.52.7,1.86,1.44.1.23.23.71.26,1.01l.02.15h-.11Z"/>
      <path class="st3" d="M106.71,22.5s-.06-.11-.13-.2c-.14-.19-.4-.56-1.02-1.48-.22-.32-.5-.72-.61-.89-.12-.17-.4-.58-.64-.93-.67-.98-.83-1.21-1.37-1.98l-.5-.72.13-.19c.14-.19.2-.27.57-.82.13-.19.32-.47.44-.64.11-.16.22-.32.24-.34.05-.08.3-.44.47-.69.09-.13.29-.42.45-.65.16-.23.39-.58.53-.77.14-.2.36-.52.5-.73.14-.2.36-.53.5-.73.13-.2.27-.39.31-.44.04-.05.07-.1.07-.12,0-.03-.34-.04-1.71-.04h-1.72s-.17.26-.17.26c-.1.14-.43.64-.74,1.11-1.07,1.62-1.5,2.29-1.55,2.34q-.04.06-.11-.01s-.59-.87-1.23-1.84c-.64-.97-1.19-1.79-1.22-1.82-.04-.05-.14-.05-1.81-.05-.97,0-1.76.02-1.76.03,0,0,.03.06.07.1.07.09.43.6.86,1.23.15.22.32.47.38.55.17.24,1.04,1.5,1.31,1.9.3.44.77,1.14.96,1.4.07.1.23.32.34.49.31.43.32.45.25.56-.07.1-.45.66-.68.99-.09.13-.28.4-.42.61-.22.33-.68.99-1.05,1.53-.07.1-.3.44-.52.76-.95,1.39-1.39,2.02-1.49,2.12-.04.04-.07.09-.07.11,0,.03,3.34.04,3.42,0,.04-.01.23-.26.23-.29,0,0,1.99-3.01,2.14-3.22.05-.07.14-.21.2-.31l.11-.17.06.07c.05.06.38.56,1.01,1.54.52.8.66,1.01.8,1.23.09.13.26.39.38.58.12.19.26.4.3.47l.07.12h1.71c1.1,0,1.71,0,1.71-.03Z"/>
      <path class="st3" d="M77.64,26.47v.95s.01.95.01.95l-.17-.19c-.29-.32-.56-.45-.95-.45-.69,0-1.23.46-1.44,1.21-.08.3-.08.95,0,1.22.13.42.33.7.63.91.29.2.44.24.82.24q.32,0,.55-.12c.14-.07.27-.16.32-.22.05-.06.12-.15.17-.2l.08-.1v.3s-.02.3-.02.3h.7v-2.4s.01-2.4.01-2.4h-.75ZM77.55,30.16c-.13.26-.24.38-.45.48-.17.08-.21.09-.41.09-.37,0-.62-.15-.79-.5-.22-.42-.21-.99,0-1.4.13-.25.34-.42.57-.47.21-.05.24-.05.44,0,.3.06.47.22.64.58.09.19.09.19.09.61s0,.42-.09.61Z"/>
      <path class="st3" d="M86.09,26.54c-.07-.06-.12-.07-.23-.07-.08,0-.18.02-.22.04-.26.13-.26.56,0,.7.21.11.46.03.59-.18.09-.14.03-.34-.14-.48Z"/>
      <path class="st3" d="M42.07,27.26l.21-.1h.38c.38,0,.38,0,.57.1.26.13.39.27.53.55l.11.24h.65l-.02-.15c-.03-.24-.22-.59-.44-.81-.2-.2-.51-.38-.79-.46-.18-.05-.75-.08-.99-.05-.64.1-1.21.51-1.51,1.11-.15.29-.23.59-.27,1-.06.54.07,1.14.33,1.61.24.42.64.76,1.09.93.39.14,1.1.13,1.51-.03.45-.17.72-.42.91-.8.11-.23.19-.48.16-.5,0,0-.15-.02-.32-.02-.24,0-.31,0-.33.03-.01.02-.05.11-.08.19-.08.19-.32.42-.52.52-.21.1-.43.14-.73.12-.21-.01-.29-.03-.45-.11-.36-.17-.63-.52-.78-.99-.06-.19-.06-.27-.06-.72,0-.55.03-.74.17-1.03.12-.24.4-.52.65-.64Z"/>
      <path class="st3" d="M59.14,28.9c-.2-.07-.23-.12-.1-.16.27-.09.53-.36.61-.64.09-.31.02-.7-.17-.95-.24-.31-.57-.46-1.14-.51-.5-.05-1.93-.04-1.94,0,0,.02-.01,1.07,0,2.33v2.29s1.06,0,1.06,0c1.13,0,1.32-.02,1.66-.15.41-.16.67-.45.75-.83.07-.32.04-.61-.09-.86-.14-.27-.3-.41-.63-.52ZM57.1,27.47l.02-.22h.72c.71.02.72.02.85.09.19.11.27.26.26.55,0,.26-.03.34-.2.5-.16.15-.36.19-1.07.19-.49,0-.57,0-.59-.05-.02-.06-.02-.79,0-1.06ZM58.92,30.48c-.17.14-.3.15-1.08.15-.63,0-.73,0-.74-.05-.02-.06-.02-1.38,0-1.4,0-.01.34-.02.74-.02.71,0,.72,0,.87.07.23.11.32.18.39.33.14.3.06.73-.17.91Z"/>
      <path class="st3" d="M82.72,26.65c-.33-.04-1.6-.05-1.77-.02h-.06s0,2.32,0,2.32v2.31s.68,0,.68,0c1.11.01,1.54-.05,2.04-.3.36-.18.69-.5.86-.85.21-.43.25-.59.25-1.18,0-.49,0-.54-.08-.77-.27-.88-.94-1.4-1.93-1.52ZM83.76,29.97c-.17.26-.44.45-.76.57-.19.07-.25.07-.8.08h-.6s0-1.45,0-1.45c0-.8,0-1.56.02-1.69l.02-.23h.59c.55.02.61.03.78.1.5.19.84.56.97,1.05.14.53.05,1.19-.21,1.57Z"/>
      <path class="st3" d="M91.25,29.16v-.76s.43-.01.43-.01h.42s0-.29,0-.29v-.27s-.11,0-.11,0c-.07,0-.26-.01-.43-.02l-.31-.02v-.46s-.01-.46-.01-.46h-.68v.93h-.27s-.27.02-.27.02v.28s0,.28,0,.28h.26s.26.03.26.03l.02,1.03c.01.99.02,1.04.08,1.21.09.24.26.44.48.56l.18.1h.37c.25,0,.38-.01.41-.03.02-.02.03-.13.04-.28v-.24s-.25,0-.25,0c-.57,0-.64-.2-.63-1.58Z"/>
      <path class="st3" d="M47.4,27.89c-.27-.14-.74-.2-1.06-.15-.39.06-.72.23-.9.46-.1.13-.25.53-.23.59.01.04.07.04.32.04h.3s.03-.1.03-.1c.05-.15.21-.32.37-.39.14-.06.18-.07.4-.06.2,0,.27.03.38.09.17.1.29.34.32.61l.02.19-.39.02c-.52.03-1,.09-1.21.16-.31.1-.59.37-.66.64-.05.19-.02.59.06.75.1.2.28.39.47.48.15.07.2.08.5.09.26,0,.37,0,.49-.04.23-.07.54-.29.62-.43.04-.06.08-.12.09-.12.01,0,.03.13.03.28v.28h.33s.33-.02.33-.02v-1.18c.02-1.28,0-1.41-.14-1.72-.08-.18-.27-.38-.46-.47ZM47.32,29.86c0,.47-.3.8-.8.9-.23.05-.5.02-.62-.07-.11-.08-.17-.24-.17-.41,0-.32.15-.48.52-.57.28-.06.33-.06.73-.06h.35s0,.2,0,.2Z"/>
      <path class="st3" d="M50.38,27.74c-.2.03-.38.1-.49.18-.13.1-.3.28-.3.32,0,.05-.06.18-.09.18-.01,0-.02-.13-.02-.3v-.3h-.68v1.72s.01,1.73.01,1.73h.65l.02-.97c.01-.82.02-.99.06-1.13.12-.35.29-.58.52-.68.08-.04.22-.06.38-.08l.26-.02v-.28c.01-.15,0-.31,0-.35-.02-.07-.05-.07-.32-.03Z"/>
      <path class="st3" d="M52.88,27.78c-.24-.06-.61-.05-.83.01-.42.12-.8.44-.99.85-.35.73-.23,1.7.29,2.21.19.19.45.35.69.42.2.06.75.06.94,0,.22-.07.47-.22.62-.37.13-.13.36-.53.35-.58,0-.01-.14-.03-.3-.04h-.29s-.07.1-.07.1c-.08.14-.25.28-.38.34-.07.03-.19.05-.37.05-.22,0-.29-.01-.41-.06-.16-.07-.37-.27-.46-.45-.06-.11-.14-.4-.14-.48,0-.03.24-.04,1.23-.04.68,0,1.25-.01,1.27-.03.05-.03.02-.47-.05-.77-.15-.61-.55-1.03-1.1-1.16ZM52.5,29.23c-.51,0-.94-.01-.95-.03-.02-.03.06-.3.12-.42.08-.16.33-.39.49-.45.22-.08.54-.07.75.04.08.05.19.13.23.18.11.13.24.41.26.56l.02.12h-.93Z"/>
      <path class="st3" d="M62.43,29.73h1.22s0-.29,0-.29c0-.83-.46-1.48-1.15-1.66-.26-.07-.66-.06-.89.02-.47.16-.78.46-1,.99-.14.33-.16,1.07-.03,1.4.17.45.46.78.86.98.24.12.25.12.59.13.4.01.58-.02.85-.15.26-.12.46-.33.59-.6.14-.29.13-.3-.21-.28-.23.01-.28.03-.31.07-.13.19-.21.27-.35.34-.14.07-.18.08-.45.08s-.31,0-.44-.08c-.17-.09-.32-.26-.42-.46-.08-.17-.14-.43-.1-.46.01-.01.57-.03,1.24-.03ZM61.17,29.19c-.05-.13.18-.58.36-.73.22-.17.57-.23.86-.15.17.05.37.22.47.39.08.14.17.45.14.5-.01.02-.35.03-.92.03-.76,0-.9,0-.91-.04Z"/>
      <path class="st3" d="M69.49,27.78c-.23-.06-.7-.05-.91.01-.44.13-.8.43-.99.82-.15.32-.19.47-.2.86-.01.32,0,.4.05.59.09.34.24.59.46.81.37.36.81.5,1.42.44.42-.04.68-.17.97-.48.2-.22.32-.42.41-.72.09-.28.09-.92,0-1.17-.21-.63-.61-1.01-1.21-1.17ZM70.06,29.55c0,.28-.01.37-.06.51-.09.23-.2.39-.37.52-.17.14-.28.17-.58.17-.2,0-.25-.01-.4-.09-.36-.18-.57-.59-.57-1.13,0-.52.23-.95.6-1.14.14-.07.21-.09.37-.09.11,0,.26.02.32.04.28.1.5.33.62.69.05.15.06.23.06.52Z"/>
      <path class="st3" d="M73.11,27.74c-.13,0-.28.02-.33.04-.26.09-.46.24-.57.41-.04.06-.08.11-.09.11-.01,0-.02-.11-.01-.24v-.24s-.33,0-.33,0h-.34v.43c0,.24-.01.53-.01.66,0,.12,0,.71,0,1.3v1.08h.68v-1.15s.02-1.15.02-1.15l.09-.19c.15-.3.32-.43.61-.46.25-.03.48.05.66.23q.24.24.26,1.57v1.15h.33c.24,0,.32,0,.35-.04.05-.06.02-2.22-.04-2.49-.14-.63-.62-1.02-1.26-1.02Z"/>
      <path class="st3" d="M89.41,29.66c-.13-.11-.39-.23-.74-.32-.17-.05-.41-.11-.52-.15-.39-.11-.55-.27-.52-.54.01-.12.03-.15.11-.23.13-.12.29-.16.58-.15.3.01.44.08.57.29.05.08.09.15.1.15.01.01.58,0,.59-.01,0,0-.01-.09-.05-.19-.12-.37-.41-.62-.83-.73-.26-.07-.66-.07-.89-.01-.37.1-.62.28-.76.56-.07.14-.08.19-.08.39,0,.57.28.81,1.21,1.08.44.13.62.2.71.28.26.24.15.58-.21.67-.29.08-.73.04-.91-.08-.1-.07-.21-.19-.26-.3-.04-.08-.05-.09-.13-.08-.05,0-.19.02-.31.02q-.26,0-.15.24c.05.11.14.23.26.36.3.3.56.39,1.14.39.54,0,.79-.08,1.06-.33.21-.19.26-.31.27-.62.01-.25,0-.27-.08-.44-.05-.1-.13-.21-.18-.26Z"/>
      <path class="st3" d="M94.59,27.78c-.24-.06-.75-.05-.98,0-.21.05-.41.16-.57.31-.13.12-.3.45-.33.62l-.02.12h.32s.32-.02.32-.02l.03-.1c.05-.15.2-.31.36-.39.2-.1.53-.1.74,0,.22.1.34.3.37.62l.02.21-.15.02c-.08,0-.31.02-.5.03-.54.03-.84.08-1.09.2-.42.21-.59.54-.54,1.02.03.32.23.59.55.78.13.08.16.08.5.09.32.01.38,0,.53-.05.23-.08.47-.25.59-.42l.1-.13v.28s.03.28.03.28h.65v-1.26c.01-1.21.01-1.26-.05-1.44-.14-.43-.42-.69-.88-.79ZM94.83,29.87c0,.26-.07.44-.23.61-.18.19-.4.28-.73.3-.41.02-.57-.07-.64-.37-.06-.31.1-.56.42-.66.17-.05.59-.09.95-.08h.23s0,.2,0,.2Z"/>
      <path class="st3" d="M99.24,28.63c-.13-.43-.45-.74-.88-.86-.19-.05-.57-.05-.73,0-.2.07-.43.24-.53.39-.05.08-.1.14-.12.15-.01,0-.02-.11,0-.25v-.25s-.33,0-.33,0h-.34v3.46h.33s.33-.02.33-.02v-1.15s.03-1.15.03-1.15l.08-.16c.16-.32.37-.45.71-.45.27,0,.43.06.59.24.22.25.22.26.23,1.52,0,.61,0,1.13,0,1.15,0,.06.63.05.68,0,.03-.04.03-.29.02-1.23-.02-1.09-.02-1.2-.08-1.38Z"/>
      <path class="st3" d="M101.6,28.34c.35,0,.59.15.76.47.06.12.09.15.14.15.03,0,.18,0,.32,0h.26s-.02-.1-.02-.1c-.03-.17-.22-.5-.37-.66-.17-.19-.44-.34-.71-.41-.22-.06-.65-.05-.87.01-.74.21-1.2.87-1.2,1.73s.47,1.54,1.2,1.75c.25.07.76.06.98-.01.24-.09.38-.17.57-.37.19-.19.37-.52.4-.71.01-.11.01-.11-.05-.1-.04.01-.18.02-.32.02h-.25l-.05.12c-.06.15-.23.33-.42.43-.13.07-.18.08-.37.08-.5,0-.82-.3-.94-.92-.09-.47.04-.94.34-1.24.18-.18.3-.23.61-.23Z"/>
      <path class="st3" d="M105.85,27.9c-.35-.17-.8-.21-1.14-.11-.75.21-1.24,1-1.19,1.87.03.46.22.91.5,1.19.2.2.34.29.62.39.19.07.24.07.61.06h.4s.24-.13.24-.13c.18-.09.28-.16.39-.28.16-.17.4-.57.36-.6-.01,0-.16-.01-.33,0-.23,0-.31.02-.31.05,0,.07-.23.29-.36.36-.11.06-.18.07-.41.07-.25,0-.3,0-.44-.08-.18-.08-.35-.26-.44-.44-.06-.11-.14-.4-.14-.47,0-.03.24-.04,1.24-.04s1.24,0,1.27-.04c.04-.04,0-.52-.06-.78-.08-.38-.46-.86-.79-1.02ZM105.13,29.23h-.95l.02-.08c.06-.27.14-.42.32-.6.21-.21.34-.27.59-.28.09,0,.22.01.29.04.28.08.49.31.61.65.1.3.19.27-.89.27Z"/>
      <path class="st3" d="M66.5,27.82s-.27.71-.72,2.06c-.1.31-.2.57-.22.57-.04.01-.01.08-.49-1.36-.22-.67-.41-1.23-.42-1.25-.02-.05-.01-.05-.44-.03l-.34.02.06.13c.03.07.12.29.19.49.2.53.68,1.78.9,2.34.11.26.19.5.19.51,0,.06-.16.39-.24.48-.12.15-.22.18-.5.18h-.25s0,.17,0,.17c0,.09,0,.2-.01.24-.02.17-.02.17.4.16.34,0,.4-.02.51-.08.21-.11.28-.18.41-.37.16-.24.18-.29,1-2.5.11-.29.28-.76.39-1.06.11-.3.21-.57.22-.62l.02-.09h-.32c-.17-.01-.33,0-.34,0Z"/>
      <path class="st3" d="M86.08,27.81s-.17,0-.32,0h-.26s0,1.73,0,1.73v1.72h.66v-1.73c.01-.95,0-1.72,0-1.73-.01,0-.05,0-.08,0Z"/>
    </g>
    <g>
      <path class="st4" d="M61.81,19.42v3.11h1.51c.83,0,1.52,0,1.53-.02,0-.01,0-3.86,0-8.54l-.02-8.52h-1.51c-.83,0-1.52.01-1.53.03,0,.01,0,2.46,0,5.43,0,2.97.02,6.8.02,8.51Z"/>
      <path class="st4" d="M40.75,15.45v7.09h3.16v-14.19h5.16v-1.4c-.01-.91-.03-1.4-.04-1.4-.01,0-3.06,0-6.76,0h-6.73v2.8h2.61s2.6.01,2.6.01v7.08Z"/>
      <path class="st4" d="M92.05,19.18c-.23-.38-.57-.94-.75-1.25-.68-1.12-.8-1.33-.97-1.59-.09-.15-.17-.28-.17-.3,0-.01.13-.08.29-.15,1.31-.52,2.34-1.62,2.78-2.95.25-.76.34-1.56.28-2.38-.08-1.09-.35-1.95-.88-2.76-.23-.35-.88-1-1.24-1.24-.78-.51-1.59-.8-2.64-.93-.45-.06-.66-.06-4.15-.07h-3.67s0,8.48,0,8.48v8.49h3.18v-5.99h2.96l.07.12c.04.07.12.22.18.34.06.11.19.34.28.5.09.16.2.36.24.43s.25.45.47.83c.22.38.61,1.08.88,1.56.26.47.59,1.05.72,1.28s.3.53.38.67l.14.26h1.83c1,0,1.82,0,1.82-.01,0-.02-.53-.9-2.02-3.34ZM89.71,13.05c-.26.27-.85.56-1.36.67-.57.12-.79.13-2.55.13h-1.69v-2.75s-.01-2.75-.01-2.75h.61c1.05-.02,2.68,0,3.05.03.6.06,1.03.2,1.44.47.34.22.7.61.84.89.46.93.43,2.1-.07,2.94-.08.14-.2.3-.26.36Z"/>
      <path class="st4" d="M58.46,21.04c.42-.47.79-1.1.98-1.66.13-.39.28-.35-1.24-.35h-1.32l-.15.18c-.48.6-.96.9-1.77,1.1-.23.06-.35.07-.82.07s-.58,0-.81-.07c-.58-.15-.97-.37-1.35-.74-.4-.4-.64-.78-.81-1.34-.05-.15-.2-.93-.2-1.02,0-.01,1.95-.02,4.33-.02s4.35,0,4.39-.02c.06-.01.06-.04.08-.76.05-1.94-.21-3.04-1.03-4.25-.27-.41-.93-1.05-1.35-1.33-1.12-.74-2.51-1.05-4.04-.9-1.82.18-3.36,1.02-4.3,2.34-.69.97-1.05,1.96-1.18,3.29-.17,1.66.15,3.29.87,4.46.84,1.36,2.22,2.32,3.82,2.67.35.07,1.22.18,1.5.18s1.13-.1,1.44-.18c1.23-.28,2.26-.86,2.96-1.64ZM51.29,13.95c.3-.6.86-1.17,1.43-1.46.19-.1.62-.22.88-.25.25-.03.64-.01.93.05.67.13,1.25.48,1.63.99.22.3.28.4.39.75.09.27.19.85.16.88,0,0-1.31.02-2.88.03-2.79.01-2.86,0-2.86-.04,0-.08.23-.77.32-.94Z"/>
      <path class="st4" d="M78.02,12.71c-.16-.31-.52-.83-.74-1.07-.53-.6-1.27-1.08-2.12-1.39-.86-.31-2.02-.43-3.09-.31-.47.05-.88.15-1.47.34-.31.1-.95.44-1.29.68-.4.29-1.1.99-1.35,1.35-.66.97-.99,1.9-1.14,3.23-.08.68-.07,1.15.01,1.83.15,1.18.43,1.96.99,2.79.6.9,1.36,1.56,2.37,2.04.77.38,1.36.53,2.34.61.52.04.6.04,1.07,0,1.48-.15,2.7-.67,3.6-1.54.4-.38.78-.93,1.01-1.45.11-.25.31-.76.31-.79,0,0-.61,0-1.35,0h-1.35l-.04.09s-.17.21-.32.36c-.42.42-.82.64-1.47.82-.25.07-.37.08-.8.09-.45.01-.55,0-.8-.05-.77-.17-1.32-.52-1.76-1.09-.34-.45-.63-1.25-.66-1.85v-.19s4.32-.01,4.32-.01h4.33s.02-.09.02-.09c.05-.2.09-.95.08-1.4-.04-1.15-.29-2.22-.7-2.99ZM75.55,14.92c-.06,0-1.34.02-2.85.02h-2.74s.02-.12.02-.12c.03-.19.22-.75.33-.94.15-.27.3-.48.49-.69.75-.81,1.68-1.11,2.73-.88.85.18,1.52.7,1.86,1.44.1.23.23.71.26,1.01l.02.15h-.11Z"/>
      <path class="st4" d="M106.71,22.5s-.06-.11-.13-.2c-.14-.19-.4-.56-1.02-1.48-.22-.32-.5-.72-.61-.89-.12-.17-.4-.58-.64-.93-.67-.98-.83-1.21-1.37-1.98l-.5-.72.13-.19c.14-.19.2-.27.57-.82.13-.19.32-.47.44-.64.11-.16.22-.32.24-.34.05-.08.3-.44.47-.69.09-.13.29-.42.45-.65.16-.23.39-.58.53-.77.14-.2.36-.52.5-.73.14-.2.36-.53.5-.73.13-.2.27-.39.31-.44.04-.05.07-.1.07-.12,0-.03-.34-.04-1.71-.04h-1.72s-.17.26-.17.26c-.1.14-.43.64-.74,1.11-1.07,1.62-1.5,2.29-1.55,2.34q-.04.06-.11-.01s-.59-.87-1.23-1.84c-.64-.97-1.19-1.79-1.22-1.82-.04-.05-.14-.05-1.81-.05-.97,0-1.76.02-1.76.03,0,0,.03.06.07.1.07.09.43.6.86,1.23.15.22.32.47.38.55.17.24,1.04,1.5,1.31,1.9.3.44.77,1.14.96,1.4.07.1.23.32.34.49.31.43.32.45.25.56-.07.1-.45.66-.68.99-.09.13-.28.4-.42.61-.22.33-.68.99-1.05,1.53-.07.1-.3.44-.52.76-.95,1.39-1.39,2.02-1.49,2.12-.04.04-.07.09-.07.11,0,.03,3.34.04,3.42,0,.04-.01.23-.26.23-.29,0,0,1.99-3.01,2.14-3.22.05-.07.14-.21.2-.31l.11-.17.06.07c.05.06.38.56,1.01,1.54.52.8.66,1.01.8,1.23.09.13.26.39.38.58.12.19.26.4.3.47l.07.12h1.71c1.1,0,1.71,0,1.71-.03Z"/>
      <path class="st4" d="M77.64,26.47v.95s.01.95.01.95l-.17-.19c-.29-.32-.56-.45-.95-.45-.69,0-1.23.46-1.44,1.21-.08.3-.08.95,0,1.22.13.42.33.7.63.91.29.2.44.24.82.24q.32,0,.55-.12c.14-.07.27-.16.32-.22.05-.06.12-.15.17-.2l.08-.1v.3s-.02.3-.02.3h.7v-2.4s.01-2.4.01-2.4h-.75ZM77.55,30.16c-.13.26-.24.38-.45.48-.17.08-.21.09-.41.09-.37,0-.62-.15-.79-.5-.22-.42-.21-.99,0-1.4.13-.25.34-.42.57-.47.21-.05.24-.05.44,0,.3.06.47.22.64.58.09.19.09.19.09.61s0,.42-.09.61Z"/>
      <path class="st4" d="M86.09,26.54c-.07-.06-.12-.07-.23-.07-.08,0-.18.02-.22.04-.26.13-.26.56,0,.7.21.11.46.03.59-.18.09-.14.03-.34-.14-.48Z"/>
      <path class="st4" d="M42.07,27.26l.21-.1h.38c.38,0,.38,0,.57.1.26.13.39.27.53.55l.11.24h.65l-.02-.15c-.03-.24-.22-.59-.44-.81-.2-.2-.51-.38-.79-.46-.18-.05-.75-.08-.99-.05-.64.1-1.21.51-1.51,1.11-.15.29-.23.59-.27,1-.06.54.07,1.14.33,1.61.24.42.64.76,1.09.93.39.14,1.1.13,1.51-.03.45-.17.72-.42.91-.8.11-.23.19-.48.16-.5,0,0-.15-.02-.32-.02-.24,0-.31,0-.33.03-.01.02-.05.11-.08.19-.08.19-.32.42-.52.52-.21.1-.43.14-.73.12-.21-.01-.29-.03-.45-.11-.36-.17-.63-.52-.78-.99-.06-.19-.06-.27-.06-.72,0-.55.03-.74.17-1.03.12-.24.4-.52.65-.64Z"/>
      <path class="st4" d="M59.14,28.9c-.2-.07-.23-.12-.1-.16.27-.09.53-.36.61-.64.09-.31.02-.7-.17-.95-.24-.31-.57-.46-1.14-.51-.5-.05-1.93-.04-1.94,0,0,.02-.01,1.07,0,2.33v2.29s1.06,0,1.06,0c1.13,0,1.32-.02,1.66-.15.41-.16.67-.45.75-.83.07-.32.04-.61-.09-.86-.14-.27-.3-.41-.63-.52ZM57.1,27.47l.02-.22h.72c.71.02.72.02.85.09.19.11.27.26.26.55,0,.26-.03.34-.2.5-.16.15-.36.19-1.07.19-.49,0-.57,0-.59-.05-.02-.06-.02-.79,0-1.06ZM58.92,30.48c-.17.14-.3.15-1.08.15-.63,0-.73,0-.74-.05-.02-.06-.02-1.38,0-1.4,0-.01.34-.02.74-.02.71,0,.72,0,.87.07.23.11.32.18.39.33.14.3.06.73-.17.91Z"/>
      <path class="st4" d="M82.72,26.65c-.33-.04-1.6-.05-1.77-.02h-.06s0,2.32,0,2.32v2.31s.68,0,.68,0c1.11.01,1.54-.05,2.04-.3.36-.18.69-.5.86-.85.21-.43.25-.59.25-1.18,0-.49,0-.54-.08-.77-.27-.88-.94-1.4-1.93-1.52ZM83.76,29.97c-.17.26-.44.45-.76.57-.19.07-.25.07-.8.08h-.6s0-1.45,0-1.45c0-.8,0-1.56.02-1.69l.02-.23h.59c.55.02.61.03.78.1.5.19.84.56.97,1.05.14.53.05,1.19-.21,1.57Z"/>
      <path class="st4" d="M91.25,29.16v-.76s.43-.01.43-.01h.42s0-.29,0-.29v-.27s-.11,0-.11,0c-.07,0-.26-.01-.43-.02l-.31-.02v-.46s-.01-.46-.01-.46h-.68v.93h-.27s-.27.02-.27.02v.28s0,.28,0,.28h.26s.26.03.26.03l.02,1.03c.01.99.02,1.04.08,1.21.09.24.26.44.48.56l.18.1h.37c.25,0,.38-.01.41-.03.02-.02.03-.13.04-.28v-.24s-.25,0-.25,0c-.57,0-.64-.2-.63-1.58Z"/>
      <path class="st4" d="M47.4,27.89c-.27-.14-.74-.2-1.06-.15-.39.06-.72.23-.9.46-.1.13-.25.53-.23.59.01.04.07.04.32.04h.3s.03-.1.03-.1c.05-.15.21-.32.37-.39.14-.06.18-.07.4-.06.2,0,.27.03.38.09.17.1.29.34.32.61l.02.19-.39.02c-.52.03-1,.09-1.21.16-.31.1-.59.37-.66.64-.05.19-.02.59.06.75.1.2.28.39.47.48.15.07.2.08.5.09.26,0,.37,0,.49-.04.23-.07.54-.29.62-.43.04-.06.08-.12.09-.12.01,0,.03.13.03.28v.28h.33s.33-.02.33-.02v-1.18c.02-1.28,0-1.41-.14-1.72-.08-.18-.27-.38-.46-.47ZM47.32,29.86c0,.47-.3.8-.8.9-.23.05-.5.02-.62-.07-.11-.08-.17-.24-.17-.41,0-.32.15-.48.52-.57.28-.06.33-.06.73-.06h.35s0,.2,0,.2Z"/>
      <path class="st4" d="M50.38,27.74c-.2.03-.38.1-.49.18-.13.1-.3.28-.3.32,0,.05-.06.18-.09.18-.01,0-.02-.13-.02-.3v-.3h-.68v1.72s.01,1.73.01,1.73h.65l.02-.97c.01-.82.02-.99.06-1.13.12-.35.29-.58.52-.68.08-.04.22-.06.38-.08l.26-.02v-.28c.01-.15,0-.31,0-.35-.02-.07-.05-.07-.32-.03Z"/>
      <path class="st4" d="M52.88,27.78c-.24-.06-.61-.05-.83.01-.42.12-.8.44-.99.85-.35.73-.23,1.7.29,2.21.19.19.45.35.69.42.2.06.75.06.94,0,.22-.07.47-.22.62-.37.13-.13.36-.53.35-.58,0-.01-.14-.03-.3-.04h-.29s-.07.1-.07.1c-.08.14-.25.28-.38.34-.07.03-.19.05-.37.05-.22,0-.29-.01-.41-.06-.16-.07-.37-.27-.46-.45-.06-.11-.14-.4-.14-.48,0-.03.24-.04,1.23-.04.68,0,1.25-.01,1.27-.03.05-.03.02-.47-.05-.77-.15-.61-.55-1.03-1.1-1.16ZM52.5,29.23c-.51,0-.94-.01-.95-.03-.02-.03.06-.3.12-.42.08-.16.33-.39.49-.45.22-.08.54-.07.75.04.08.05.19.13.23.18.11.13.24.41.26.56l.02.12h-.93Z"/>
      <path class="st4" d="M62.43,29.73h1.22s0-.29,0-.29c0-.83-.46-1.48-1.15-1.66-.26-.07-.66-.06-.89.02-.47.16-.78.46-1,.99-.14.33-.16,1.07-.03,1.4.17.45.46.78.86.98.24.12.25.12.59.13.4.01.58-.02.85-.15.26-.12.46-.33.59-.6.14-.29.13-.3-.21-.28-.23.01-.28.03-.31.07-.13.19-.21.27-.35.34-.14.07-.18.08-.45.08s-.31,0-.44-.08c-.17-.09-.32-.26-.42-.46-.08-.17-.14-.43-.1-.46.01-.01.57-.03,1.24-.03ZM61.17,29.19c-.05-.13.18-.58.36-.73.22-.17.57-.23.86-.15.17.05.37.22.47.39.08.14.17.45.14.5-.01.02-.35.03-.92.03-.76,0-.9,0-.91-.04Z"/>
      <path class="st4" d="M69.49,27.78c-.23-.06-.7-.05-.91.01-.44.13-.8.43-.99.82-.15.32-.19.47-.2.86-.01.32,0,.4.05.59.09.34.24.59.46.81.37.36.81.5,1.42.44.42-.04.68-.17.97-.48.2-.22.32-.42.41-.72.09-.28.09-.92,0-1.17-.21-.63-.61-1.01-1.21-1.17ZM70.06,29.55c0,.28-.01.37-.06.51-.09.23-.2.39-.37.52-.17.14-.28.17-.58.17-.2,0-.25-.01-.4-.09-.36-.18-.57-.59-.57-1.13,0-.52.23-.95.6-1.14.14-.07.21-.09.37-.09.11,0,.26.02.32.04.28.1.5.33.62.69.05.15.06.23.06.52Z"/>
      <path class="st4" d="M73.11,27.74c-.13,0-.28.02-.33.04-.26.09-.46.24-.57.41-.04.06-.08.11-.09.11-.01,0-.02-.11-.01-.24v-.24s-.33,0-.33,0h-.34v.43c0,.24-.01.53-.01.66,0,.12,0,.71,0,1.3v1.08h.68v-1.15s.02-1.15.02-1.15l.09-.19c.15-.3.32-.43.61-.46.25-.03.48.05.66.23q.24.24.26,1.57v1.15h.33c.24,0,.32,0,.35-.04.05-.06.02-2.22-.04-2.49-.14-.63-.62-1.02-1.26-1.02Z"/>
      <path class="st4" d="M89.41,29.66c-.13-.11-.39-.23-.74-.32-.17-.05-.41-.11-.52-.15-.39-.11-.55-.27-.52-.54.01-.12.03-.15.11-.23.13-.12.29-.16.58-.15.3.01.44.08.57.29.05.08.09.15.1.15.01.01.58,0,.59-.01,0,0-.01-.09-.05-.19-.12-.37-.41-.62-.83-.73-.26-.07-.66-.07-.89-.01-.37.1-.62.28-.76.56-.07.14-.08.19-.08.39,0,.57.28.81,1.21,1.08.44.13.62.2.71.28.26.24.15.58-.21.67-.29.08-.73.04-.91-.08-.1-.07-.21-.19-.26-.3-.04-.08-.05-.09-.13-.08-.05,0-.19.02-.31.02q-.26,0-.15.24c.05.11.14.23.26.36.3.3.56.39,1.14.39.54,0,.79-.08,1.06-.33.21-.19.26-.31.27-.62.01-.25,0-.27-.08-.44-.05-.1-.13-.21-.18-.26Z"/>
      <path class="st4" d="M94.59,27.78c-.24-.06-.75-.05-.98,0-.21.05-.41.16-.57.31-.13.12-.3.45-.33.62l-.02.12h.32s.32-.02.32-.02l.03-.1c.05-.15.2-.31.36-.39.2-.1.53-.1.74,0,.22.1.34.3.37.62l.02.21-.15.02c-.08,0-.31.02-.5.03-.54.03-.84.08-1.09.2-.42.21-.59.54-.54,1.02.03.32.23.59.55.78.13.08.16.08.5.09.32.01.38,0,.53-.05.23-.08.47-.25.59-.42l.1-.13v.28s.03.28.03.28h.65v-1.26c.01-1.21.01-1.26-.05-1.44-.14-.43-.42-.69-.88-.79ZM94.83,29.87c0,.26-.07.44-.23.61-.18.19-.4.28-.73.3-.41.02-.57-.07-.64-.37-.06-.31.1-.56.42-.66.17-.05.59-.09.95-.08h.23s0,.2,0,.2Z"/>
      <path class="st4" d="M99.24,28.63c-.13-.43-.45-.74-.88-.86-.19-.05-.57-.05-.73,0-.2.07-.43.24-.53.39-.05.08-.1.14-.12.15-.01,0-.02-.11,0-.25v-.25s-.33,0-.33,0h-.34v3.46h.33s.33-.02.33-.02v-1.15s.03-1.15.03-1.15l.08-.16c.16-.32.37-.45.71-.45.27,0,.43.06.59.24.22.25.22.26.23,1.52,0,.61,0,1.13,0,1.15,0,.06.63.05.68,0,.03-.04.03-.29.02-1.23-.02-1.09-.02-1.2-.08-1.38Z"/>
      <path class="st4" d="M101.6,28.34c.35,0,.59.15.76.47.06.12.09.15.14.15.03,0,.18,0,.32,0h.26s-.02-.1-.02-.1c-.03-.17-.22-.5-.37-.66-.17-.19-.44-.34-.71-.41-.22-.06-.65-.05-.87.01-.74.21-1.2.87-1.2,1.73s.47,1.54,1.2,1.75c.25.07.76.06.98-.01.24-.09.38-.17.57-.37.19-.19.37-.52.4-.71.01-.11.01-.11-.05-.1-.04.01-.18.02-.32.02h-.25l-.05.12c-.06.15-.23.33-.42.43-.13.07-.18.08-.37.08-.5,0-.82-.3-.94-.92-.09-.47.04-.94.34-1.24.18-.18.3-.23.61-.23Z"/>
      <path class="st4" d="M105.85,27.9c-.35-.17-.8-.21-1.14-.11-.75.21-1.24,1-1.19,1.87.03.46.22.91.5,1.19.2.2.34.29.62.39.19.07.24.07.61.06h.4s.24-.13.24-.13c.18-.09.28-.16.39-.28.16-.17.4-.57.36-.6-.01,0-.16-.01-.33,0-.23,0-.31.02-.31.05,0,.07-.23.29-.36.36-.11.06-.18.07-.41.07-.25,0-.3,0-.44-.08-.18-.08-.35-.26-.44-.44-.06-.11-.14-.4-.14-.47,0-.03.24-.04,1.24-.04s1.24,0,1.27-.04c.04-.04,0-.52-.06-.78-.08-.38-.46-.86-.79-1.02ZM105.13,29.23h-.95l.02-.08c.06-.27.14-.42.32-.6.21-.21.34-.27.59-.28.09,0,.22.01.29.04.28.08.49.31.61.65.1.3.19.27-.89.27Z"/>
      <path class="st4" d="M66.5,27.82s-.27.71-.72,2.06c-.1.31-.2.57-.22.57-.04.01-.01.08-.49-1.36-.22-.67-.41-1.23-.42-1.25-.02-.05-.01-.05-.44-.03l-.34.02.06.13c.03.07.12.29.19.49.2.53.68,1.78.9,2.34.11.26.19.5.19.51,0,.06-.16.39-.24.48-.12.15-.22.18-.5.18h-.25s0,.17,0,.17c0,.09,0,.2-.01.24-.02.17-.02.17.4.16.34,0,.4-.02.51-.08.21-.11.28-.18.41-.37.16-.24.18-.29,1-2.5.11-.29.28-.76.39-1.06.11-.3.21-.57.22-.62l.02-.09h-.32c-.17-.01-.33,0-.34,0Z"/>
      <path class="st4" d="M86.08,27.81s-.17,0-.32,0h-.26s0,1.73,0,1.73v1.72h.66v-1.73c.01-.95,0-1.72,0-1.73-.01,0-.05,0-.08,0Z"/>
    </g>
  </g>
  <g>
    <g>
      <path class="st2" d="M17.21,33.35s0,0,0,0c-.3,0-.6,0-.93,0h-.34c-.3,0-.59,0-.87,0,0,0,0,0,0,0h-7.69l5.96,3.31c1.7,1.12,3.91,1.12,5.61,0l5.96-3.31h-7.7Z"/>
      <path class="st0" d="M22.36.5h-12.44C4.6.5.29,4.81.29,10.13v13.62c0,2.06.64,3.96,1.74,5.52.72,1.03,1.63,1.91,2.69,2.58-.04-.14-.07-.28-.08-.43,0-.53.01-1.75.01-3.17,0-1.08,0-1.84,0-2.39,0-.57.01-.91.02-1.15,0-.08.02-.16.03-.24.38-2.29,2.16-4.29,4.73-5.57h.02v1.47c0,1.15,0,1.48-.03,1.5-.02.01-.14.07-.28.12-.47.2-.96.58-1.26.98-.18.24-.39.64-.49.97-.16.5-.17.6-.17,2.58,0,1.73,0,1.8.06,2,.15.55.45.9.88,1.05.14.05.22.06.42.05.28-.01.42-.07.59-.23.16-.15.21-.28.21-.53,0-.19-.01-.24-.08-.37-.09-.15-.16-.22-.4-.36-.19-.11-.37-.29-.41-.44-.03-.08-.04-.45-.05-1.46,0-1.13,0-1.38.04-1.56.17-.85.84-1.44,1.65-1.44.29,0,.48.05.79.21.41.21.8.72.91,1.19.06.23.06,2.89,0,3.07-.05.17-.2.32-.4.41-.34.16-.46.33-.48.67-.02.35.1.58.39.73.18.1.57.12.78.05.18-.06.45-.24.56-.39.28-.35.34-.54.38-1.12.03-.52,0-3.19-.03-3.52-.09-.72-.41-1.37-.94-1.9-.36-.36-.7-.57-1.15-.73-.14-.05-.18-.08-.19-.13,0-.04,0-.63,0-1.31.02-1.32.03-1.41.17-1.85.02-.06.04-.11.05-.15.06-.15.1-.22.17-.27.03-.02.08-.04.13-.07.13-.04.26-.08.39-.12.02,0,.04,0,.06-.01.09-.02.19-.04.22-.04.07-.02.11.03.29.39.01.03.03.05.04.08.27.51.46.81.75,1.21.83,1.12,1.71,1.91,3.04,2.72.04.03.09.05.1.05.06,0,1.06-.71,1.46-1.03.62-.5,1.57-1.58,1.98-2.25.09-.15.13-.21.39-.7,0-.01.02-.03.02-.04.09-.17.19-.33.21-.35.03-.03.1-.03.25-.02.05,0,.11.01.16.02.14.04.28.08.41.13.13.06.23.13.27.19.02.03.03.08.05.12.12.35.16.99.09,1.48-.13.91-.33,1.8-.61,2.71-.07.22-.12.43-.12.45,0,.02-.08.07-.18.12-.7.31-1.21.96-1.34,1.67-.05.29-.02.92.06,1.16.16.51.46.91.88,1.18.34.23.63.33,1.02.37.99.12,1.92-.37,2.34-1.23.24-.48.3-.97.2-1.5-.13-.7-.61-1.3-1.32-1.65-.13-.06-.15-.09-.14-.13.17-.55.37-1.48.49-2.2.11-.68.13-.82.18-1.47l.04-.47c2.49,1.28,4.2,3.25,4.58,5.49.05.32.07.65.08.99,0,.02,0,.03,0,.05v5.76c0,.21-.03.4-.09.59,1.06-.68,1.98-1.56,2.7-2.59,1.1-1.56,1.74-3.47,1.74-5.52v-13.62c0-5.32-4.31-9.63-9.63-9.63ZM16.14,16.94c-3.07,0-5.56-2.66-5.56-5.94s2.49-5.94,5.56-5.94,5.56,2.66,5.56,5.94-2.49,5.94-5.56,5.94ZM22.29,25.34c.01.16,0,.22-.06.35-.09.21-.25.36-.44.42-.25.08-.37.09-.54.03-.45-.15-.68-.69-.47-1.12.2-.4.64-.57,1.03-.38.28.13.45.39.47.71Z"/>
    </g>
    <g>
      <path class="st1" d="M20.79,25.01c-.21.43.01.96.47,1.12.17.06.29.05.54-.03.18-.06.34-.21.44-.42.06-.13.07-.19.06-.35-.02-.32-.19-.57-.47-.71-.39-.18-.83-.02-1.03.38Z"/>
      <path class="st1" d="M27.64,25.47c0-.34-.03-.67-.08-.99-.37-2.25-2.09-4.21-4.58-5.49l-.04.47c-.05.66-.06.79-.18,1.47-.12.73-.33,1.66-.49,2.2-.01.05,0,.07.14.13.71.35,1.18.95,1.32,1.65.1.53.03,1.02-.2,1.5-.42.86-1.35,1.34-2.34,1.23-.39-.04-.67-.15-1.02-.37-.42-.27-.72-.68-.88-1.18-.08-.24-.11-.87-.06-1.16.12-.71.64-1.35,1.34-1.67.1-.04.18-.1.18-.12,0-.02.06-.23.12-.45.28-.91.48-1.8.61-2.71.07-.48.02-1.13-.09-1.48-.02-.05-.03-.09-.05-.12-.03-.06-.13-.13-.27-.19-.14-.04-.27-.09-.41-.13-.06-.01-.11-.02-.16-.02-.15-.01-.22,0-.25.02-.02.02-.12.18-.21.35,0,.02-.02.03-.02.04-.26.49-.3.55-.39.7-.41.67-1.36,1.75-1.98,2.25-.4.32-1.4,1.03-1.46,1.03-.02,0-.06-.02-.1-.05-1.33-.81-2.21-1.6-3.04-2.72-.3-.4-.48-.7-.75-1.21-.01-.03-.03-.05-.04-.08-.19-.36-.23-.41-.29-.39-.03,0-.13.03-.22.04-.02,0-.04,0-.06.01-.13.04-.26.08-.39.12-.05.02-.1.05-.13.07-.07.05-.11.11-.17.27-.02.04-.03.09-.05.15-.15.44-.15.52-.17,1.85,0,.68,0,1.27,0,1.31.01.05.05.08.19.13.45.16.79.37,1.15.73.53.52.85,1.18.94,1.9.04.33.07,3.01.03,3.52-.04.58-.1.77-.38,1.12-.11.14-.38.32-.56.39-.21.07-.6.04-.78-.05-.29-.15-.41-.38-.39-.73.02-.35.14-.52.48-.67.2-.1.35-.25.4-.41.05-.18.05-2.83,0-3.07-.11-.47-.49-.98-.91-1.19-.31-.16-.5-.21-.79-.21-.81,0-1.48.59-1.65,1.44-.04.18-.04.42-.04,1.56,0,1.01.02,1.38.05,1.46.05.14.22.33.41.44.25.14.32.2.4.36.07.13.08.18.08.37,0,.25-.05.38-.21.53-.16.16-.31.21-.59.23-.2,0-.28,0-.42-.05-.44-.15-.73-.5-.88-1.05-.06-.2-.06-.27-.06-2,0-1.97,0-2.08.17-2.58.1-.32.31-.73.49-.97.31-.41.8-.79,1.26-.98.13-.06.26-.11.28-.12.02-.02.03-.35.03-1.5v-1.47h-.02c-2.57,1.28-4.35,3.28-4.73,5.57-.01.08-.02.16-.03.24-.01.24-.02.59-.02,1.15,0,.55,0,1.31,0,2.39,0,1.42,0,2.64-.01,3.17.01.15.04.29.08.43.04.15.1.29.18.42.35.64,1.03,1.07,1.81,1.07h8.36s0,0,0,0c.28,0,.57,0,.87,0h.34c.32,0,.63,0,.93,0,0,0,0,0,0,0h8.36c.78,0,1.46-.43,1.81-1.07.07-.13.13-.27.18-.42.06-.19.09-.39.09-.59v-5.76s0-.03,0-.05Z"/>
      <ellipse class="st1" cx="16.14" cy="11" rx="5.56" ry="5.94"/>
    </g>
  </g>
</svg>