<?xml version="1.0" encoding="UTF-8"?>
<svg id="Layer_1" xmlns="http://www.w3.org/2000/svg" version="1.1" xmlns:xlink="http://www.w3.org/1999/xlink" viewBox="0 0 815 284">
  <!-- Generator: Adobe Illustrator 29.8.2, SVG Export Plug-In . SVG Version: 2.1.1 Build 3)  -->
  <defs>
    <style>
      .st0 {
        fill: url(#linear-gradient2);
      }

      .st1 {
        fill: #fff;
      }

      .st2 {
        fill: url(#linear-gradient1);
      }

      .st3 {
        fill: #172b38;
      }

      .st4 {
        fill: url(#linear-gradient);
      }
    </style>
    <linearGradient id="linear-gradient" x1="270.16" y1="142" x2="814.48" y2="142" gradientUnits="userSpaceOnUse">
      <stop offset="0" stop-color="#172b38"/>
      <stop offset="1" stop-color="#33517a"/>
    </linearGradient>
    <linearGradient id="linear-gradient1" x1="54.72" y1="267.64" x2="188.8" y2="267.64" gradientUnits="userSpaceOnUse">
      <stop offset="0" stop-color="#0c77c9"/>
      <stop offset="1" stop-color="#15558d"/>
    </linearGradient>
    <linearGradient id="linear-gradient2" x1=".52" y1="120.46" x2="243" y2="120.46" xlink:href="#linear-gradient1"/>
  </defs>
  <g>
    <g>
      <path class="st3" d="M471.04,145.24v23.79h11.55c6.38,0,11.62-.07,11.67-.18.07-.09.05-29.49-.05-65.31l-.14-65.15h-11.53c-6.36,0-11.6.09-11.67.2-.07.09-.07,18.79.02,41.54.07,22.72.14,52.03.14,65.1Z"/>
      <path class="st3" d="M309.99,114.82v54.21h24.17V60.53h39.5l-.05-10.71c-.05-6.92-.16-10.71-.3-10.71-.11-.02-23.38,0-51.69.05l-51.48.05v21.34l19.93.05,19.91.07v54.18Z"/>
      <path class="st3" d="M702.35,143.38c-1.77-2.93-4.38-7.22-5.77-9.53-5.18-8.53-6.15-10.15-7.45-12.14-.73-1.11-1.32-2.13-1.32-2.27,0-.11,1-.61,2.22-1.11,10.01-3.97,17.93-12.37,21.27-22.54,1.88-5.81,2.63-11.89,2.18-18.18-.59-8.33-2.7-14.91-6.76-21.11-1.77-2.7-6.74-7.67-9.51-9.51-5.95-3.93-12.19-6.13-20.18-7.15-3.45-.45-5.06-.48-31.71-.57l-28.1-.09v129.86h24.29v-45.85h22.65l.57.95c.3.54.93,1.68,1.41,2.57.48.86,1.45,2.61,2.16,3.86.7,1.25,1.54,2.72,1.86,3.29s1.93,3.43,3.59,6.36c1.66,2.93,4.65,8.29,6.7,11.92,2.02,3.61,4.49,8.01,5.49,9.76s2.29,4.06,2.88,5.15l1.07,2h13.96c7.65,0,13.94-.05,13.94-.09,0-.14-4.06-6.86-15.44-25.56ZM684.46,96.46c-2,2.07-6.54,4.31-10.42,5.15-4.34.93-6.06,1.02-19.48,1.02h-12.94l-.07-21.04-.05-21.06,4.7-.07c8.04-.11,20.47.05,23.33.32,4.56.43,7.85,1.5,11.03,3.59,2.57,1.7,5.36,4.65,6.42,6.83,3.52,7.15,3.29,16.09-.57,22.52-.64,1.04-1.52,2.27-1.97,2.75Z"/>
      <path class="st3" d="M445.46,157.59c3.22-3.63,6.06-8.42,7.51-12.67,1.02-3,2.16-2.68-9.49-2.68h-10.08l-1.13,1.41c-3.68,4.61-7.35,6.88-13.55,8.42-1.75.43-2.66.5-6.24.5s-4.45-.07-6.2-.52c-4.47-1.18-7.45-2.81-10.35-5.67-3.09-3.04-4.86-5.97-6.2-10.24-.36-1.16-1.54-7.1-1.54-7.79,0-.09,14.89-.18,33.1-.18s33.28-.07,33.55-.14c.48-.11.48-.3.64-5.83.41-14.85-1.63-23.24-7.9-32.51-2.09-3.11-7.08-8.01-10.35-10.17-8.58-5.67-19.2-8.04-30.87-6.86-13.89,1.41-25.7,7.81-32.87,17.86-5.31,7.4-8.01,14.96-9.01,25.15-1.27,12.73,1.16,25.2,6.65,34.09,6.4,10.4,16.98,17.77,29.21,20.38,2.66.57,9.33,1.36,11.46,1.36s8.63-.79,11.01-1.36c9.37-2.18,17.32-6.58,22.65-12.58ZM390.62,103.34c2.27-4.56,6.56-8.92,10.94-11.15,1.48-.75,4.72-1.68,6.72-1.93,1.93-.23,4.86-.09,7.15.39,5.15,1.02,9.56,3.7,12.46,7.56,1.7,2.27,2.11,3.06,3,5.72.68,2.09,1.48,6.49,1.2,6.74-.07.07-9.99.18-22.02.2-21.36.09-21.88.07-21.88-.34,0-.64,1.77-5.88,2.43-7.2Z"/>
      <path class="st3" d="M595.03,93.89c-1.25-2.36-3.97-6.33-5.65-8.19-4.09-4.56-9.72-8.26-16.18-10.65-6.58-2.41-15.46-3.31-23.61-2.38-3.56.41-6.74,1.16-11.21,2.61-2.41.79-7.24,3.34-9.9,5.2-3.09,2.2-8.44,7.54-10.35,10.35-5.06,7.45-7.56,14.5-8.72,24.72-.59,5.18-.57,8.81.09,13.98,1.18,9.06,3.27,14.96,7.54,21.34,4.61,6.9,10.37,11.89,18.14,15.64,5.92,2.88,10.37,4.04,17.91,4.7,4,.34,4.59.34,8.17-.02,11.33-1.11,20.68-5.11,27.56-11.78,3.04-2.93,5.97-7.15,7.69-11.05.84-1.93,2.34-5.79,2.34-6.04,0-.05-4.65-.07-10.33-.07h-10.31l-.34.66c-.18.34-1.29,1.59-2.47,2.77-3.2,3.18-6.24,4.86-11.21,6.24-1.91.52-2.79.64-6.15.73-3.47.09-4.18.05-6.13-.41-5.86-1.32-10.1-3.95-13.44-8.35-2.63-3.47-4.79-9.56-5.04-14.12l-.07-1.48,33.12-.11,33.14-.11.16-.61c.39-1.5.73-7.24.59-10.69-.32-8.83-2.22-16.98-5.33-22.86ZM576.19,110.76c-.45.07-10.28.14-21.81.16l-20.97.02.14-.98c.2-1.48,1.68-5.74,2.5-7.2,1.13-2.07,2.29-3.68,3.77-5.29,5.72-6.2,12.85-8.51,20.91-6.74,6.51,1.41,11.62,5.38,14.21,11.01.79,1.77,1.75,5.43,1.97,7.72l.14,1.18-.84.11Z"/>
      <path class="st3" d="M814.48,168.8c0-.11-.45-.82-1-1.52-1.07-1.43-3.04-4.31-7.83-11.35-1.68-2.47-3.79-5.54-4.65-6.81-.89-1.27-3.09-4.47-4.9-7.1-5.15-7.51-6.38-9.28-10.46-15.16l-3.84-5.49,1.02-1.43c1.09-1.48,1.5-2.07,4.36-6.29.98-1.43,2.47-3.63,3.36-4.9.86-1.25,1.7-2.43,1.82-2.63.39-.59,2.29-3.38,3.63-5.29.68-1,2.22-3.25,3.43-4.99,1.2-1.75,3.02-4.4,4.06-5.9,1.04-1.5,2.77-3.99,3.84-5.56,1.07-1.57,2.77-4.06,3.79-5.56,1.02-1.5,2.09-3.02,2.38-3.36.3-.36.54-.77.54-.93,0-.25-2.59-.3-13.1-.27l-13.12.02-1.32,1.93c-.75,1.07-3.29,4.88-5.67,8.51-8.15,12.39-11.51,17.48-11.85,17.93q-.34.45-.82-.11c-.27-.32-4.52-6.65-9.44-14.07-4.93-7.42-9.12-13.69-9.33-13.91-.34-.39-1.07-.41-13.82-.36-7.4.05-13.46.14-13.46.23,0,.07.23.43.52.77.54.7,3.27,4.61,6.56,9.42,1.13,1.68,2.43,3.56,2.88,4.2,1.29,1.82,7.92,11.44,10.01,14.53,2.27,3.34,5.92,8.72,7.31,10.74.54.77,1.73,2.45,2.63,3.75,2.38,3.31,2.43,3.45,1.93,4.27-.5.79-3.43,5.08-5.18,7.58-.7,1-2.13,3.09-3.2,4.65-1.68,2.5-5.18,7.56-8.04,11.69-.52.75-2.32,3.36-3.97,5.79-7.29,10.62-10.67,15.48-11.37,16.23-.3.32-.54.68-.54.82,0,.23,25.58.3,26.19.07.3-.11,1.73-1.95,1.73-2.22,0-.07,15.21-22.99,16.34-24.65.39-.57,1.09-1.61,1.54-2.36l.82-1.32.43.52c.39.48,2.88,4.29,7.76,11.78,3.97,6.11,5.04,7.74,6.13,9.42.66,1,1.95,3.02,2.91,4.47.95,1.45,2,3.06,2.32,3.59l.57.91h13.05c8.44,0,13.05-.07,13.05-.23Z"/>
      <path class="st3" d="M592.13,199.12l.06,7.25.04,7.28-1.29-1.42c-2.2-2.43-4.28-3.42-7.28-3.42-5.27,0-9.41,3.49-11.02,9.28-.62,2.3-.62,7.28.02,9.36.99,3.23,2.5,5.38,4.84,6.95,2.24,1.51,3.34,1.81,6.31,1.81q2.45-.02,4.24-.93c1.08-.54,2.07-1.23,2.45-1.7.37-.43.95-1.12,1.31-1.53l.65-.75-.06,2.26-.06,2.26h5.38l.06-18.36.04-18.34h-5.7ZM591.44,227.32c-.99,2.02-1.81,2.88-3.47,3.7-1.27.62-1.64.71-3.16.71-2.82,0-4.71-1.18-6.03-3.79-1.66-3.25-1.64-7.58.02-10.74.99-1.89,2.58-3.19,4.37-3.57,1.57-.34,1.81-.34,3.4-.02,2.26.47,3.57,1.66,4.87,4.41.69,1.42.69,1.49.69,4.67s0,3.25-.69,4.63Z"/>
      <path class="st3" d="M656.79,199.68c-.52-.45-.88-.56-1.77-.56-.62,0-1.36.13-1.66.28-1.96.99-1.98,4.31,0,5.36,1.57.82,3.49.24,4.48-1.38.69-1.1.26-2.6-1.05-3.7Z"/>
      <path class="st3" d="M320.09,205.19l1.64-.8h2.93c2.88,0,2.93,0,4.39.73,1.96.97,2.99,2.05,4.05,4.24l.86,1.81h4.97l-.13-1.14c-.22-1.81-1.68-4.52-3.36-6.18-1.53-1.51-3.9-2.91-6.05-3.53-1.38-.41-5.77-.62-7.53-.37-4.91.73-9.28,3.92-11.56,8.46-1.12,2.22-1.72,4.48-2.05,7.62-.43,4.13.54,8.74,2.56,12.33,1.83,3.21,4.91,5.83,8.33,7.1,2.97,1.1,8.4,1.01,11.52-.19,3.44-1.33,5.53-3.19,6.93-6.14.82-1.72,1.44-3.66,1.25-3.85-.04-.04-1.14-.13-2.43-.15-1.87-.04-2.39,0-2.52.26-.09.17-.37.84-.65,1.49-.65,1.46-2.41,3.25-3.98,3.98-1.59.75-3.27,1.03-5.58.93-1.64-.09-2.2-.22-3.44-.82-2.76-1.31-4.84-3.94-5.94-7.53-.45-1.44-.5-2.05-.5-5.49,0-4.24.24-5.64,1.33-7.86.93-1.85,3.04-3.96,4.95-4.91Z"/>
      <path class="st3" d="M450.61,217.74c-1.55-.52-1.79-.93-.78-1.25,2.07-.67,4.05-2.78,4.63-4.91.67-2.37.13-5.36-1.27-7.23-1.83-2.39-4.37-3.53-8.74-3.92-3.81-.34-14.72-.3-14.85.02-.06.15-.09,8.18-.06,17.82l.06,17.54,8.07-.02c8.61,0,10.12-.15,12.7-1.16,3.1-1.23,5.1-3.44,5.73-6.33.52-2.41.28-4.69-.69-6.61-1.03-2.05-2.32-3.12-4.8-3.96ZM435.02,206.79l.13-1.66,5.51.06c5.42.06,5.53.06,6.48.6,1.46.82,2.05,2.02,2.02,4.2,0,1.96-.24,2.58-1.53,3.83-1.23,1.16-2.73,1.44-8.16,1.44-3.77,0-4.37-.04-4.48-.34-.17-.45-.17-6.05.02-8.14ZM448.95,229.82c-1.33,1.03-2.28,1.16-8.29,1.16-4.84,0-5.55-.04-5.66-.34-.17-.45-.17-10.53.02-10.7.06-.09,2.6-.15,5.64-.15,5.42,0,5.53.02,6.65.54,1.79.84,2.41,1.38,2.97,2.56,1.08,2.32.45,5.58-1.33,6.93Z"/>
      <path class="st3" d="M631.01,200.52c-2.52-.3-12.25-.41-13.54-.17l-.47.09.04,17.7.06,17.7,5.17.06c8.48.11,11.78-.37,15.61-2.26,2.78-1.38,5.27-3.83,6.61-6.52,1.64-3.29,1.89-4.48,1.89-9.04-.02-3.72-.06-4.11-.6-5.92-2.07-6.72-7.19-10.74-14.77-11.62ZM638.93,225.92c-1.33,2-3.34,3.47-5.83,4.37-1.46.52-1.92.56-6.14.65l-4.59.09v-11.17c0-6.14.06-11.97.15-12.96l.13-1.79,4.54.09c4.2.09,4.65.15,5.98.65,3.79,1.42,6.39,4.26,7.38,8.05,1.05,4.03.37,9.13-1.64,12.03Z"/>
      <path class="st3" d="M696.25,219.68l.06-5.81,3.23-.11,3.23-.11.06-2.11.06-2.09-.93-.02c-.52-.02-1.98-.09-3.29-.17l-2.37-.13-.06-3.51-.04-3.49h-5.17v7.08l-2.07.06-2.09.06.02,2.15.02,2.15,2,.11,2,.11.13,7.86c.11,7.53.13,7.92.6,9.24.69,1.87,1.96,3.36,3.68,4.31l1.4.78h2.84c1.89,0,2.93-.09,3.1-.26.15-.15.26-1.01.28-2.13l.02-1.87-1.94-.02c-4.33-.04-4.91-1.53-4.8-12.08Z"/>
      <path class="st3" d="M360.84,209.99c-2.05-1.03-5.64-1.55-8.09-1.16-2.97.45-5.53,1.77-6.89,3.55-.77.99-1.94,4.03-1.74,4.5.11.28.52.32,2.43.28l2.32-.06.22-.69c.39-1.16,1.59-2.43,2.84-3.01,1.05-.47,1.4-.54,3.06-.45,1.55.06,2.05.19,2.88.67,1.29.75,2.24,2.6,2.43,4.69l.15,1.42-2.99.17c-4,.19-7.66.67-9.23,1.21-2.37.78-4.5,2.82-5.08,4.87-.41,1.49-.17,4.48.47,5.75.75,1.55,2.17,2.99,3.57,3.7,1.12.56,1.51.62,3.79.69,1.98.06,2.8,0,3.77-.3,1.74-.56,4.13-2.22,4.74-3.29.28-.5.58-.88.71-.88.11,0,.19.97.19,2.15v2.17l2.54-.06,2.52-.06.06-9.04c.06-9.79-.02-10.81-1.14-13.17-.65-1.4-2.09-2.88-3.53-3.62ZM360.26,225.08c-.06,3.57-2.3,6.09-6.11,6.89-1.77.37-3.83.13-4.74-.52-.82-.58-1.31-1.81-1.31-3.12,0-2.41,1.18-3.7,3.94-4.33,2.17-.47,2.5-.5,5.55-.47l2.69.02-.02,1.53Z"/>
      <path class="st3" d="M383.64,208.83c-1.55.22-2.93.73-3.75,1.36-.99.75-2.28,2.13-2.28,2.43,0,.41-.47,1.36-.69,1.36-.09,0-.17-1.01-.17-2.26v-2.26h-5.17l.04,13.17.06,13.2h4.95l.13-7.43c.11-6.29.17-7.6.5-8.61.88-2.69,2.22-4.43,3.96-5.21.6-.28,1.7-.5,2.93-.58l1.96-.13.06-2.15c.04-1.18,0-2.37-.06-2.65-.13-.52-.41-.56-2.48-.24Z"/>
      <path class="st3" d="M402.78,209.13c-1.81-.43-4.69-.39-6.33.09-3.23.93-6.11,3.38-7.6,6.48-2.69,5.62-1.74,12.98,2.2,16.92,1.44,1.44,3.47,2.67,5.27,3.19,1.53.45,5.75.45,7.19.02,1.7-.52,3.62-1.66,4.78-2.82.99-1.01,2.78-4.03,2.65-4.46-.04-.11-1.05-.22-2.28-.28l-2.2-.09-.52.82c-.65,1.03-1.92,2.15-2.91,2.58-.52.22-1.46.34-2.82.34-1.68,0-2.24-.09-3.16-.5-1.25-.56-2.8-2.07-3.49-3.42-.43-.86-1.1-3.06-1.1-3.64,0-.22,1.87-.28,9.43-.28,5.17,0,9.54-.09,9.71-.19.41-.26.17-3.57-.41-5.92-1.18-4.67-4.2-7.86-8.42-8.85ZM399.83,220.22c-3.92,0-7.17-.09-7.23-.19-.15-.24.43-2.26.95-3.25.62-1.21,2.52-2.95,3.75-3.44,1.66-.65,4.15-.52,5.7.32.62.34,1.42.97,1.79,1.4.82.99,1.83,3.12,2.02,4.26l.15.9h-7.13Z"/>
      <path class="st3" d="M475.77,224.05l9.36-.06-.02-2.15c-.04-6.37-3.49-11.3-8.83-12.68-2-.52-5.04-.45-6.78.15-3.62,1.23-5.94,3.53-7.69,7.6-1.08,2.54-1.21,8.18-.26,10.72,1.31,3.44,3.53,5.96,6.57,7.47,1.83.9,1.92.93,4.5,1.01,3.08.11,4.46-.13,6.52-1.12,1.96-.95,3.51-2.52,4.5-4.59,1.08-2.2.99-2.3-1.57-2.17-1.72.11-2.13.19-2.35.52-.99,1.46-1.61,2.09-2.67,2.6-1.08.54-1.4.6-3.44.6s-2.37-.06-3.36-.58c-1.31-.69-2.48-1.98-3.23-3.55-.6-1.27-1.03-3.29-.78-3.55.09-.09,4.37-.19,9.51-.22ZM466.17,219.92c-.37-.97,1.38-4.46,2.76-5.58,1.66-1.33,4.33-1.79,6.57-1.12,1.29.39,2.8,1.66,3.6,2.99.62,1.05,1.31,3.44,1.1,3.79-.09.13-2.67.22-7.02.22-5.81,0-6.89-.04-7-.3Z"/>
      <path class="st3" d="M529.81,209.13c-1.72-.45-5.34-.41-7,.09-3.34.97-6.14,3.29-7.56,6.26-1.14,2.41-1.44,3.62-1.53,6.59-.11,2.41-.04,3.04.34,4.48.71,2.6,1.81,4.54,3.49,6.2,2.82,2.78,6.22,3.85,10.89,3.4,3.21-.3,5.21-1.29,7.45-3.64,1.55-1.66,2.43-3.19,3.14-5.49.67-2.15.67-7.02.02-8.96-1.64-4.82-4.65-7.73-9.26-8.93ZM534.18,222.69c0,2.15-.09,2.8-.5,3.87-.67,1.74-1.53,2.97-2.82,3.98-1.31,1.03-2.17,1.29-4.41,1.29-1.51,0-1.92-.09-3.06-.67-2.76-1.38-4.33-4.52-4.35-8.68,0-4,1.72-7.3,4.56-8.72,1.1-.56,1.57-.67,2.86-.67.86,0,1.96.15,2.45.32,2.17.75,3.79,2.56,4.78,5.27.41,1.18.5,1.79.47,3.98Z"/>
      <path class="st3" d="M557.51,208.83c-.97,0-2.11.13-2.54.3-1.96.71-3.51,1.83-4.39,3.14-.3.47-.62.84-.71.84-.11,0-.13-.82-.09-1.83l.11-1.83h-5.23l-.02,3.27c-.02,1.81-.06,4.07-.09,5.02-.04.95,0,5.42.06,9.95l.11,8.24h5.08l.06-8.78.06-8.76.69-1.42c1.12-2.28,2.43-3.29,4.63-3.55,1.89-.22,3.7.41,5.04,1.74q1.87,1.87,1.98,11.99l.09,8.78h2.43c1.83,0,2.48-.06,2.67-.3.41-.47.15-16.96-.28-19.03-1.03-4.82-4.74-7.81-9.67-7.77Z"/>
      <path class="st3" d="M682.15,223.53c-1.01-.86-2.97-1.72-5.64-2.45-1.29-.37-3.1-.86-4-1.12-2.95-.82-4.18-2.09-4-4.13.09-.88.22-1.18.86-1.77.99-.93,2.22-1.23,4.46-1.12,2.3.11,3.38.65,4.35,2.2.39.6.71,1.14.75,1.18.09.11,4.43.02,4.54-.09.04-.04-.11-.69-.37-1.44-.93-2.8-3.14-4.74-6.37-5.55-2-.52-5.04-.56-6.78-.09-2.8.73-4.74,2.15-5.81,4.26-.56,1.08-.65,1.49-.65,2.95,0,4.33,2.11,6.22,9.26,8.27,3.4.97,4.74,1.51,5.47,2.17,1.96,1.83,1.16,4.41-1.61,5.14-2.2.58-5.6.28-6.97-.62-.8-.54-1.61-1.46-1.96-2.26-.28-.65-.37-.71-.97-.58-.37.06-1.44.13-2.37.13q-1.96,0-1.14,1.83c.37.84,1.03,1.74,2.02,2.73,2.3,2.3,4.26,2.97,8.72,2.97,4.13,0,6.03-.6,8.12-2.54,1.57-1.46,1.96-2.35,2.07-4.74.09-1.89.06-2.07-.58-3.38-.37-.75-.99-1.64-1.38-1.96Z"/>
      <path class="st3" d="M721.78,209.13c-1.85-.43-5.7-.41-7.49.06-1.57.41-3.1,1.25-4.33,2.35-.97.88-2.33,3.47-2.5,4.78l-.13.9,2.45-.06,2.45-.06.24-.73c.37-1.14,1.53-2.39,2.76-2.95,1.55-.73,4.09-.73,5.64,0,1.7.8,2.6,2.3,2.8,4.74l.15,1.59-1.16.13c-.65.06-2.37.17-3.85.22-4.15.19-6.46.6-8.31,1.51-3.21,1.59-4.54,4.11-4.15,7.84.26,2.41,1.74,4.52,4.18,5.96,1.01.6,1.23.65,3.83.71,2.45.09,2.93.02,4.09-.39,1.77-.65,3.57-1.94,4.48-3.19l.73-1.01.11,2.15.11,2.15h4.95l.06-9.64c.04-9.26.02-9.67-.41-10.98-1.1-3.32-3.23-5.25-6.69-6.07ZM723.64,225.1c0,1.98-.54,3.36-1.77,4.63-1.4,1.46-3.08,2.15-5.55,2.28-3.16.17-4.39-.54-4.87-2.8-.5-2.37.75-4.31,3.23-5.06,1.33-.39,4.52-.67,7.25-.6l1.72.02-.02,1.53Z"/>
      <path class="st3" d="M757.35,215.65c-1.01-3.29-3.44-5.66-6.72-6.54-1.49-.39-4.33-.37-5.55.06-1.53.52-3.27,1.81-4.05,2.99-.37.58-.77,1.08-.88,1.12-.11.04-.13-.82-.06-1.89l.11-1.94h-5.23v26.5l2.54-.06,2.52-.06.11-8.83.11-8.83.62-1.25c1.21-2.41,2.82-3.44,5.4-3.47,2.05-.02,3.29.47,4.5,1.83,1.7,1.89,1.7,1.96,1.79,11.6.04,4.67.06,8.63.06,8.76,0,.45,4.8.39,5.17-.04.24-.28.26-2.2.15-9.43-.13-8.33-.17-9.21-.58-10.53Z"/>
      <path class="st3" d="M775.43,213.44c2.67,0,4.52,1.14,5.79,3.57.45.88.71,1.16,1.05,1.14.26,0,1.36-.02,2.43-.04l1.98-.04-.15-.69c-.26-1.31-1.66-3.83-2.82-5.08-1.31-1.42-3.38-2.63-5.4-3.16-1.68-.43-4.99-.41-6.65.09-5.66,1.61-9.15,6.67-9.15,13.24s3.6,11.78,9.15,13.37c1.89.56,5.83.5,7.51-.09,1.85-.67,2.88-1.33,4.37-2.84,1.44-1.44,2.82-3.94,3.04-5.42.11-.82.09-.86-.41-.73-.28.09-1.38.15-2.45.15h-1.94l-.39.93c-.47,1.18-1.77,2.5-3.21,3.27-.99.54-1.38.62-2.86.62-3.85,0-6.24-2.32-7.17-7.02-.69-3.57.3-7.21,2.6-9.51,1.38-1.38,2.33-1.74,4.67-1.74Z"/>
      <path class="st3" d="M807.94,210.06c-2.67-1.27-6.11-1.59-8.72-.84-5.7,1.64-9.49,7.62-9.08,14.34.22,3.51,1.66,7,3.79,9.13,1.51,1.51,2.63,2.2,4.78,2.95,1.46.52,1.81.56,4.63.47l3.04-.06,1.83-.9c1.38-.69,2.13-1.25,2.99-2.17,1.21-1.29,3.06-4.37,2.78-4.56-.09-.06-1.25-.09-2.56-.04-1.79.04-2.39.15-2.39.34,0,.52-1.72,2.24-2.76,2.73-.84.43-1.36.52-3.16.52-1.92,0-2.28-.06-3.36-.6-1.36-.65-2.71-2-3.4-3.36-.43-.84-1.1-3.04-1.1-3.62,0-.22,1.87-.28,9.45-.28s9.49-.04,9.69-.3c.28-.32,0-3.96-.43-5.94-.65-2.88-3.51-6.61-6.01-7.79ZM802.42,220.22h-7.23l.15-.6c.5-2.07,1.1-3.19,2.48-4.59,1.57-1.59,2.63-2.09,4.54-2.11.67-.02,1.66.11,2.22.28,2.13.65,3.77,2.39,4.65,4.95.78,2.28,1.46,2.07-6.8,2.07Z"/>
      <path class="st3" d="M506.95,209.48c-.19.13-2.05,5.4-5.53,15.78-.8,2.37-1.55,4.33-1.68,4.37-.28.11-.11.58-3.75-10.38-1.68-5.1-3.12-9.41-3.21-9.58-.17-.39-.09-.39-3.38-.24l-2.63.13.43.97c.26.54.9,2.22,1.49,3.77,1.51,4.09,5.19,13.63,6.91,17.89.82,2.02,1.49,3.79,1.49,3.92,0,.47-1.25,2.97-1.83,3.66-.95,1.14-1.7,1.4-3.81,1.4l-1.89-.02-.02,1.33c0,.71-.04,1.55-.09,1.85-.17,1.31-.13,1.33,3.08,1.25,2.58-.06,3.06-.13,3.92-.58,1.57-.84,2.15-1.36,3.14-2.84,1.21-1.83,1.36-2.22,7.62-19.14.82-2.2,2.15-5.83,2.99-8.07.84-2.26,1.59-4.39,1.66-4.78l.13-.69-2.41-.06c-1.33-.04-2.5,0-2.63.06Z"/>
      <path class="st3" d="M656.71,209.39c-.24-.02-1.33-.02-2.43.02l-1.98.06.04,13.17.06,13.17h4.95l.06-13.2c.02-7.23-.02-13.17-.11-13.2-.11,0-.37-.02-.6-.04Z"/>
    </g>
    <g>
      <path class="st4" d="M471.04,145.24v23.79h11.55c6.38,0,11.62-.07,11.67-.18.07-.09.05-29.49-.05-65.31l-.14-65.15h-11.53c-6.36,0-11.6.09-11.67.2-.07.09-.07,18.79.02,41.54.07,22.72.14,52.03.14,65.1Z"/>
      <path class="st4" d="M309.99,114.82v54.21h24.17V60.53h39.5l-.05-10.71c-.05-6.92-.16-10.71-.3-10.71-.11-.02-23.38,0-51.69.05l-51.48.05v21.34l19.93.05,19.91.07v54.18Z"/>
      <path class="st4" d="M702.35,143.38c-1.77-2.93-4.38-7.22-5.77-9.53-5.18-8.53-6.15-10.15-7.45-12.14-.73-1.11-1.32-2.13-1.32-2.27,0-.11,1-.61,2.22-1.11,10.01-3.97,17.93-12.37,21.27-22.54,1.88-5.81,2.63-11.89,2.18-18.18-.59-8.33-2.7-14.91-6.76-21.11-1.77-2.7-6.74-7.67-9.51-9.51-5.95-3.93-12.19-6.13-20.18-7.15-3.45-.45-5.06-.48-31.71-.57l-28.1-.09v129.86h24.29v-45.85h22.65l.57.95c.3.54.93,1.68,1.41,2.57.48.86,1.45,2.61,2.16,3.86.7,1.25,1.54,2.72,1.86,3.29s1.93,3.43,3.59,6.36c1.66,2.93,4.65,8.29,6.7,11.92,2.02,3.61,4.49,8.01,5.49,9.76s2.29,4.06,2.88,5.15l1.07,2h13.96c7.65,0,13.94-.05,13.94-.09,0-.14-4.06-6.86-15.44-25.56ZM684.46,96.46c-2,2.07-6.54,4.31-10.42,5.15-4.34.93-6.06,1.02-19.48,1.02h-12.94l-.07-21.04-.05-21.06,4.7-.07c8.04-.11,20.47.05,23.33.32,4.56.43,7.85,1.5,11.03,3.59,2.57,1.7,5.36,4.65,6.42,6.83,3.52,7.15,3.29,16.09-.57,22.52-.64,1.04-1.52,2.27-1.97,2.75Z"/>
      <path class="st4" d="M445.46,157.59c3.22-3.63,6.06-8.42,7.51-12.67,1.02-3,2.16-2.68-9.49-2.68h-10.08l-1.13,1.41c-3.68,4.61-7.35,6.88-13.55,8.42-1.75.43-2.66.5-6.24.5s-4.45-.07-6.2-.52c-4.47-1.18-7.45-2.81-10.35-5.67-3.09-3.04-4.86-5.97-6.2-10.24-.36-1.16-1.54-7.1-1.54-7.79,0-.09,14.89-.18,33.1-.18s33.28-.07,33.55-.14c.48-.11.48-.3.64-5.83.41-14.85-1.63-23.24-7.9-32.51-2.09-3.11-7.08-8.01-10.35-10.17-8.58-5.67-19.2-8.04-30.87-6.86-13.89,1.41-25.7,7.81-32.87,17.86-5.31,7.4-8.01,14.96-9.01,25.15-1.27,12.73,1.16,25.2,6.65,34.09,6.4,10.4,16.98,17.77,29.21,20.38,2.66.57,9.33,1.36,11.46,1.36s8.63-.79,11.01-1.36c9.37-2.18,17.32-6.58,22.65-12.58ZM390.62,103.34c2.27-4.56,6.56-8.92,10.94-11.15,1.48-.75,4.72-1.68,6.72-1.93,1.93-.23,4.86-.09,7.15.39,5.15,1.02,9.56,3.7,12.46,7.56,1.7,2.27,2.11,3.06,3,5.72.68,2.09,1.48,6.49,1.2,6.74-.07.07-9.99.18-22.02.2-21.36.09-21.88.07-21.88-.34,0-.64,1.77-5.88,2.43-7.2Z"/>
      <path class="st4" d="M595.03,93.89c-1.25-2.36-3.97-6.33-5.65-8.19-4.09-4.56-9.72-8.26-16.18-10.65-6.58-2.41-15.46-3.31-23.61-2.38-3.56.41-6.74,1.16-11.21,2.61-2.41.79-7.24,3.34-9.9,5.2-3.09,2.2-8.44,7.54-10.35,10.35-5.06,7.45-7.56,14.5-8.72,24.72-.59,5.18-.57,8.81.09,13.98,1.18,9.06,3.27,14.96,7.54,21.34,4.61,6.9,10.37,11.89,18.14,15.64,5.92,2.88,10.37,4.04,17.91,4.7,4,.34,4.59.34,8.17-.02,11.33-1.11,20.68-5.11,27.56-11.78,3.04-2.93,5.97-7.15,7.69-11.05.84-1.93,2.34-5.79,2.34-6.04,0-.05-4.65-.07-10.33-.07h-10.31l-.34.66c-.18.34-1.29,1.59-2.47,2.77-3.2,3.18-6.24,4.86-11.21,6.24-1.91.52-2.79.64-6.15.73-3.47.09-4.18.05-6.13-.41-5.86-1.32-10.1-3.95-13.44-8.35-2.63-3.47-4.79-9.56-5.04-14.12l-.07-1.48,33.12-.11,33.14-.11.16-.61c.39-1.5.73-7.24.59-10.69-.32-8.83-2.22-16.98-5.33-22.86ZM576.19,110.76c-.45.07-10.28.14-21.81.16l-20.97.02.14-.98c.2-1.48,1.68-5.74,2.5-7.2,1.13-2.07,2.29-3.68,3.77-5.29,5.72-6.2,12.85-8.51,20.91-6.74,6.51,1.41,11.62,5.38,14.21,11.01.79,1.77,1.75,5.43,1.97,7.72l.14,1.18-.84.11Z"/>
      <path class="st4" d="M814.48,168.8c0-.11-.45-.82-1-1.52-1.07-1.43-3.04-4.31-7.83-11.35-1.68-2.47-3.79-5.54-4.65-6.81-.89-1.27-3.09-4.47-4.9-7.1-5.15-7.51-6.38-9.28-10.46-15.16l-3.84-5.49,1.02-1.43c1.09-1.48,1.5-2.07,4.36-6.29.98-1.43,2.47-3.63,3.36-4.9.86-1.25,1.7-2.43,1.82-2.63.39-.59,2.29-3.38,3.63-5.29.68-1,2.22-3.25,3.43-4.99,1.2-1.75,3.02-4.4,4.06-5.9,1.04-1.5,2.77-3.99,3.84-5.56,1.07-1.57,2.77-4.06,3.79-5.56,1.02-1.5,2.09-3.02,2.38-3.36.3-.36.54-.77.54-.93,0-.25-2.59-.3-13.1-.27l-13.12.02-1.32,1.93c-.75,1.07-3.29,4.88-5.67,8.51-8.15,12.39-11.51,17.48-11.85,17.93q-.34.45-.82-.11c-.27-.32-4.52-6.65-9.44-14.07-4.93-7.42-9.12-13.69-9.33-13.91-.34-.39-1.07-.41-13.82-.36-7.4.05-13.46.14-13.46.23,0,.07.23.43.52.77.54.7,3.27,4.61,6.56,9.42,1.13,1.68,2.43,3.56,2.88,4.2,1.29,1.82,7.92,11.44,10.01,14.53,2.27,3.34,5.92,8.72,7.31,10.74.54.77,1.73,2.45,2.63,3.75,2.38,3.31,2.43,3.45,1.93,4.27-.5.79-3.43,5.08-5.18,7.58-.7,1-2.13,3.09-3.2,4.65-1.68,2.5-5.18,7.56-8.04,11.69-.52.75-2.32,3.36-3.97,5.79-7.29,10.62-10.67,15.48-11.37,16.23-.3.32-.54.68-.54.82,0,.23,25.58.3,26.19.07.3-.11,1.73-1.95,1.73-2.22,0-.07,15.21-22.99,16.34-24.65.39-.57,1.09-1.61,1.54-2.36l.82-1.32.43.52c.39.48,2.88,4.29,7.76,11.78,3.97,6.11,5.04,7.74,6.13,9.42.66,1,1.95,3.02,2.91,4.47.95,1.45,2,3.06,2.32,3.59l.57.91h13.05c8.44,0,13.05-.07,13.05-.23Z"/>
      <path class="st4" d="M592.13,199.12l.06,7.25.04,7.28-1.29-1.42c-2.2-2.43-4.28-3.42-7.28-3.42-5.27,0-9.41,3.49-11.02,9.28-.62,2.3-.62,7.28.02,9.36.99,3.23,2.5,5.38,4.84,6.95,2.24,1.51,3.34,1.81,6.31,1.81q2.45-.02,4.24-.93c1.08-.54,2.07-1.23,2.45-1.7.37-.43.95-1.12,1.31-1.53l.65-.75-.06,2.26-.06,2.26h5.38l.06-18.36.04-18.34h-5.7ZM591.44,227.32c-.99,2.02-1.81,2.88-3.47,3.7-1.27.62-1.64.71-3.16.71-2.82,0-4.71-1.18-6.03-3.79-1.66-3.25-1.64-7.58.02-10.74.99-1.89,2.58-3.19,4.37-3.57,1.57-.34,1.81-.34,3.4-.02,2.26.47,3.57,1.66,4.87,4.41.69,1.42.69,1.49.69,4.67s0,3.25-.69,4.63Z"/>
      <path class="st4" d="M656.79,199.68c-.52-.45-.88-.56-1.77-.56-.62,0-1.36.13-1.66.28-1.96.99-1.98,4.31,0,5.36,1.57.82,3.49.24,4.48-1.38.69-1.1.26-2.6-1.05-3.7Z"/>
      <path class="st4" d="M320.09,205.19l1.64-.8h2.93c2.88,0,2.93,0,4.39.73,1.96.97,2.99,2.05,4.05,4.24l.86,1.81h4.97l-.13-1.14c-.22-1.81-1.68-4.52-3.36-6.18-1.53-1.51-3.9-2.91-6.05-3.53-1.38-.41-5.77-.62-7.53-.37-4.91.73-9.28,3.92-11.56,8.46-1.12,2.22-1.72,4.48-2.05,7.62-.43,4.13.54,8.74,2.56,12.33,1.83,3.21,4.91,5.83,8.33,7.1,2.97,1.1,8.4,1.01,11.52-.19,3.44-1.33,5.53-3.19,6.93-6.14.82-1.72,1.44-3.66,1.25-3.85-.04-.04-1.14-.13-2.43-.15-1.87-.04-2.39,0-2.52.26-.09.17-.37.84-.65,1.49-.65,1.46-2.41,3.25-3.98,3.98-1.59.75-3.27,1.03-5.58.93-1.64-.09-2.2-.22-3.44-.82-2.76-1.31-4.84-3.94-5.94-7.53-.45-1.44-.5-2.05-.5-5.49,0-4.24.24-5.64,1.33-7.86.93-1.85,3.04-3.96,4.95-4.91Z"/>
      <path class="st4" d="M450.61,217.74c-1.55-.52-1.79-.93-.78-1.25,2.07-.67,4.05-2.78,4.63-4.91.67-2.37.13-5.36-1.27-7.23-1.83-2.39-4.37-3.53-8.74-3.92-3.81-.34-14.72-.3-14.85.02-.06.15-.09,8.18-.06,17.82l.06,17.54,8.07-.02c8.61,0,10.12-.15,12.7-1.16,3.1-1.23,5.1-3.44,5.73-6.33.52-2.41.28-4.69-.69-6.61-1.03-2.05-2.32-3.12-4.8-3.96ZM435.02,206.79l.13-1.66,5.51.06c5.42.06,5.53.06,6.48.6,1.46.82,2.05,2.02,2.02,4.2,0,1.96-.24,2.58-1.53,3.83-1.23,1.16-2.73,1.44-8.16,1.44-3.77,0-4.37-.04-4.48-.34-.17-.45-.17-6.05.02-8.14ZM448.95,229.82c-1.33,1.03-2.28,1.16-8.29,1.16-4.84,0-5.55-.04-5.66-.34-.17-.45-.17-10.53.02-10.7.06-.09,2.6-.15,5.64-.15,5.42,0,5.53.02,6.65.54,1.79.84,2.41,1.38,2.97,2.56,1.08,2.32.45,5.58-1.33,6.93Z"/>
      <path class="st4" d="M631.01,200.52c-2.52-.3-12.25-.41-13.54-.17l-.47.09.04,17.7.06,17.7,5.17.06c8.48.11,11.78-.37,15.61-2.26,2.78-1.38,5.27-3.83,6.61-6.52,1.64-3.29,1.89-4.48,1.89-9.04-.02-3.72-.06-4.11-.6-5.92-2.07-6.72-7.19-10.74-14.77-11.62ZM638.93,225.92c-1.33,2-3.34,3.47-5.83,4.37-1.46.52-1.92.56-6.14.65l-4.59.09v-11.17c0-6.14.06-11.97.15-12.96l.13-1.79,4.54.09c4.2.09,4.65.15,5.98.65,3.79,1.42,6.39,4.26,7.38,8.05,1.05,4.03.37,9.13-1.64,12.03Z"/>
      <path class="st4" d="M696.25,219.68l.06-5.81,3.23-.11,3.23-.11.06-2.11.06-2.09-.93-.02c-.52-.02-1.98-.09-3.29-.17l-2.37-.13-.06-3.51-.04-3.49h-5.17v7.08l-2.07.06-2.09.06.02,2.15.02,2.15,2,.11,2,.11.13,7.86c.11,7.53.13,7.92.6,9.24.69,1.87,1.96,3.36,3.68,4.31l1.4.78h2.84c1.89,0,2.93-.09,3.1-.26.15-.15.26-1.01.28-2.13l.02-1.87-1.94-.02c-4.33-.04-4.91-1.53-4.8-12.08Z"/>
      <path class="st4" d="M360.84,209.99c-2.05-1.03-5.64-1.55-8.09-1.16-2.97.45-5.53,1.77-6.89,3.55-.77.99-1.94,4.03-1.74,4.5.11.28.52.32,2.43.28l2.32-.06.22-.69c.39-1.16,1.59-2.43,2.84-3.01,1.05-.47,1.4-.54,3.06-.45,1.55.06,2.05.19,2.88.67,1.29.75,2.24,2.6,2.43,4.69l.15,1.42-2.99.17c-4,.19-7.66.67-9.23,1.21-2.37.78-4.5,2.82-5.08,4.87-.41,1.49-.17,4.48.47,5.75.75,1.55,2.17,2.99,3.57,3.7,1.12.56,1.51.62,3.79.69,1.98.06,2.8,0,3.77-.3,1.74-.56,4.13-2.22,4.74-3.29.28-.5.58-.88.71-.88.11,0,.19.97.19,2.15v2.17l2.54-.06,2.52-.06.06-9.04c.06-9.79-.02-10.81-1.14-13.17-.65-1.4-2.09-2.88-3.53-3.62ZM360.26,225.08c-.06,3.57-2.3,6.09-6.11,6.89-1.77.37-3.83.13-4.74-.52-.82-.58-1.31-1.81-1.31-3.12,0-2.41,1.18-3.7,3.94-4.33,2.17-.47,2.5-.5,5.55-.47l2.69.02-.02,1.53Z"/>
      <path class="st4" d="M383.64,208.83c-1.55.22-2.93.73-3.75,1.36-.99.75-2.28,2.13-2.28,2.43,0,.41-.47,1.36-.69,1.36-.09,0-.17-1.01-.17-2.26v-2.26h-5.17l.04,13.17.06,13.2h4.95l.13-7.43c.11-6.29.17-7.6.5-8.61.88-2.69,2.22-4.43,3.96-5.21.6-.28,1.7-.5,2.93-.58l1.96-.13.06-2.15c.04-1.18,0-2.37-.06-2.65-.13-.52-.41-.56-2.48-.24Z"/>
      <path class="st4" d="M402.78,209.13c-1.81-.43-4.69-.39-6.33.09-3.23.93-6.11,3.38-7.6,6.48-2.69,5.62-1.74,12.98,2.2,16.92,1.44,1.44,3.47,2.67,5.27,3.19,1.53.45,5.75.45,7.19.02,1.7-.52,3.62-1.66,4.78-2.82.99-1.01,2.78-4.03,2.65-4.46-.04-.11-1.05-.22-2.28-.28l-2.2-.09-.52.82c-.65,1.03-1.92,2.15-2.91,2.58-.52.22-1.46.34-2.82.34-1.68,0-2.24-.09-3.16-.5-1.25-.56-2.8-2.07-3.49-3.42-.43-.86-1.1-3.06-1.1-3.64,0-.22,1.87-.28,9.43-.28,5.17,0,9.54-.09,9.71-.19.41-.26.17-3.57-.41-5.92-1.18-4.67-4.2-7.86-8.42-8.85ZM399.83,220.22c-3.92,0-7.17-.09-7.23-.19-.15-.24.43-2.26.95-3.25.62-1.21,2.52-2.95,3.75-3.44,1.66-.65,4.15-.52,5.7.32.62.34,1.42.97,1.79,1.4.82.99,1.83,3.12,2.02,4.26l.15.9h-7.13Z"/>
      <path class="st4" d="M475.77,224.05l9.36-.06-.02-2.15c-.04-6.37-3.49-11.3-8.83-12.68-2-.52-5.04-.45-6.78.15-3.62,1.23-5.94,3.53-7.69,7.6-1.08,2.54-1.21,8.18-.26,10.72,1.31,3.44,3.53,5.96,6.57,7.47,1.83.9,1.92.93,4.5,1.01,3.08.11,4.46-.13,6.52-1.12,1.96-.95,3.51-2.52,4.5-4.59,1.08-2.2.99-2.3-1.57-2.17-1.72.11-2.13.19-2.35.52-.99,1.46-1.61,2.09-2.67,2.6-1.08.54-1.4.6-3.44.6s-2.37-.06-3.36-.58c-1.31-.69-2.48-1.98-3.23-3.55-.6-1.27-1.03-3.29-.78-3.55.09-.09,4.37-.19,9.51-.22ZM466.17,219.92c-.37-.97,1.38-4.46,2.76-5.58,1.66-1.33,4.33-1.79,6.57-1.12,1.29.39,2.8,1.66,3.6,2.99.62,1.05,1.31,3.44,1.1,3.79-.09.13-2.67.22-7.02.22-5.81,0-6.89-.04-7-.3Z"/>
      <path class="st4" d="M529.81,209.13c-1.72-.45-5.34-.41-7,.09-3.34.97-6.14,3.29-7.56,6.26-1.14,2.41-1.44,3.62-1.53,6.59-.11,2.41-.04,3.04.34,4.48.71,2.6,1.81,4.54,3.49,6.2,2.82,2.78,6.22,3.85,10.89,3.4,3.21-.3,5.21-1.29,7.45-3.64,1.55-1.66,2.43-3.19,3.14-5.49.67-2.15.67-7.02.02-8.96-1.64-4.82-4.65-7.73-9.26-8.93ZM534.18,222.69c0,2.15-.09,2.8-.5,3.87-.67,1.74-1.53,2.97-2.82,3.98-1.31,1.03-2.17,1.29-4.41,1.29-1.51,0-1.92-.09-3.06-.67-2.76-1.38-4.33-4.52-4.35-8.68,0-4,1.72-7.3,4.56-8.72,1.1-.56,1.57-.67,2.86-.67.86,0,1.96.15,2.45.32,2.17.75,3.79,2.56,4.78,5.27.41,1.18.5,1.79.47,3.98Z"/>
      <path class="st4" d="M557.51,208.83c-.97,0-2.11.13-2.54.3-1.96.71-3.51,1.83-4.39,3.14-.3.47-.62.84-.71.84-.11,0-.13-.82-.09-1.83l.11-1.83h-5.23l-.02,3.27c-.02,1.81-.06,4.07-.09,5.02-.04.95,0,5.42.06,9.95l.11,8.24h5.08l.06-8.78.06-8.76.69-1.42c1.12-2.28,2.43-3.29,4.63-3.55,1.89-.22,3.7.41,5.04,1.74q1.87,1.87,1.98,11.99l.09,8.78h2.43c1.83,0,2.48-.06,2.67-.3.41-.47.15-16.96-.28-19.03-1.03-4.82-4.74-7.81-9.67-7.77Z"/>
      <path class="st4" d="M682.15,223.53c-1.01-.86-2.97-1.72-5.64-2.45-1.29-.37-3.1-.86-4-1.12-2.95-.82-4.18-2.09-4-4.13.09-.88.22-1.18.86-1.77.99-.93,2.22-1.23,4.46-1.12,2.3.11,3.38.65,4.35,2.2.39.6.71,1.14.75,1.18.09.11,4.43.02,4.54-.09.04-.04-.11-.69-.37-1.44-.93-2.8-3.14-4.74-6.37-5.55-2-.52-5.04-.56-6.78-.09-2.8.73-4.74,2.15-5.81,4.26-.56,1.08-.65,1.49-.65,2.95,0,4.33,2.11,6.22,9.26,8.27,3.4.97,4.74,1.51,5.47,2.17,1.96,1.83,1.16,4.41-1.61,5.14-2.2.58-5.6.28-6.97-.62-.8-.54-1.61-1.46-1.96-2.26-.28-.65-.37-.71-.97-.58-.37.06-1.44.13-2.37.13q-1.96,0-1.14,1.83c.37.84,1.03,1.74,2.02,2.73,2.3,2.3,4.26,2.97,8.72,2.97,4.13,0,6.03-.6,8.12-2.54,1.57-1.46,1.96-2.35,2.07-4.74.09-1.89.06-2.07-.58-3.38-.37-.75-.99-1.64-1.38-1.96Z"/>
      <path class="st4" d="M721.78,209.13c-1.85-.43-5.7-.41-7.49.06-1.57.41-3.1,1.25-4.33,2.35-.97.88-2.33,3.47-2.5,4.78l-.13.9,2.45-.06,2.45-.06.24-.73c.37-1.14,1.53-2.39,2.76-2.95,1.55-.73,4.09-.73,5.64,0,1.7.8,2.6,2.3,2.8,4.74l.15,1.59-1.16.13c-.65.06-2.37.17-3.85.22-4.15.19-6.46.6-8.31,1.51-3.21,1.59-4.54,4.11-4.15,7.84.26,2.41,1.74,4.52,4.18,5.96,1.01.6,1.23.65,3.83.71,2.45.09,2.93.02,4.09-.39,1.77-.65,3.57-1.94,4.48-3.19l.73-1.01.11,2.15.11,2.15h4.95l.06-9.64c.04-9.26.02-9.67-.41-10.98-1.1-3.32-3.23-5.25-6.69-6.07ZM723.64,225.1c0,1.98-.54,3.36-1.77,4.63-1.4,1.46-3.08,2.15-5.55,2.28-3.16.17-4.39-.54-4.87-2.8-.5-2.37.75-4.31,3.23-5.06,1.33-.39,4.52-.67,7.25-.6l1.72.02-.02,1.53Z"/>
      <path class="st4" d="M757.35,215.65c-1.01-3.29-3.44-5.66-6.72-6.54-1.49-.39-4.33-.37-5.55.06-1.53.52-3.27,1.81-4.05,2.99-.37.58-.77,1.08-.88,1.12-.11.04-.13-.82-.06-1.89l.11-1.94h-5.23v26.5l2.54-.06,2.52-.06.11-8.83.11-8.83.62-1.25c1.21-2.41,2.82-3.44,5.4-3.47,2.05-.02,3.29.47,4.5,1.83,1.7,1.89,1.7,1.96,1.79,11.6.04,4.67.06,8.63.06,8.76,0,.45,4.8.39,5.17-.04.24-.28.26-2.2.15-9.43-.13-8.33-.17-9.21-.58-10.53Z"/>
      <path class="st4" d="M775.43,213.44c2.67,0,4.52,1.14,5.79,3.57.45.88.71,1.16,1.05,1.14.26,0,1.36-.02,2.43-.04l1.98-.04-.15-.69c-.26-1.31-1.66-3.83-2.82-5.08-1.31-1.42-3.38-2.63-5.4-3.16-1.68-.43-4.99-.41-6.65.09-5.66,1.61-9.15,6.67-9.15,13.24s3.6,11.78,9.15,13.37c1.89.56,5.83.5,7.51-.09,1.85-.67,2.88-1.33,4.37-2.84,1.44-1.44,2.82-3.94,3.04-5.42.11-.82.09-.86-.41-.73-.28.09-1.38.15-2.45.15h-1.94l-.39.93c-.47,1.18-1.77,2.5-3.21,3.27-.99.54-1.38.62-2.86.62-3.85,0-6.24-2.32-7.17-7.02-.69-3.57.3-7.21,2.6-9.51,1.38-1.38,2.33-1.74,4.67-1.74Z"/>
      <path class="st4" d="M807.94,210.06c-2.67-1.27-6.11-1.59-8.72-.84-5.7,1.64-9.49,7.62-9.08,14.34.22,3.51,1.66,7,3.79,9.13,1.51,1.51,2.63,2.2,4.78,2.95,1.46.52,1.81.56,4.63.47l3.04-.06,1.83-.9c1.38-.69,2.13-1.25,2.99-2.17,1.21-1.29,3.06-4.37,2.78-4.56-.09-.06-1.25-.09-2.56-.04-1.79.04-2.39.15-2.39.34,0,.52-1.72,2.24-2.76,2.73-.84.43-1.36.52-3.16.52-1.92,0-2.28-.06-3.36-.6-1.36-.65-2.71-2-3.4-3.36-.43-.84-1.1-3.04-1.1-3.62,0-.22,1.87-.28,9.45-.28s9.49-.04,9.69-.3c.28-.32,0-3.96-.43-5.94-.65-2.88-3.51-6.61-6.01-7.79ZM802.42,220.22h-7.23l.15-.6c.5-2.07,1.1-3.19,2.48-4.59,1.57-1.59,2.63-2.09,4.54-2.11.67-.02,1.66.11,2.22.28,2.13.65,3.77,2.39,4.65,4.95.78,2.28,1.46,2.07-6.8,2.07Z"/>
      <path class="st4" d="M506.95,209.48c-.19.13-2.05,5.4-5.53,15.78-.8,2.37-1.55,4.33-1.68,4.37-.28.11-.11.58-3.75-10.38-1.68-5.1-3.12-9.41-3.21-9.58-.17-.39-.09-.39-3.38-.24l-2.63.13.43.97c.26.54.9,2.22,1.49,3.77,1.51,4.09,5.19,13.63,6.91,17.89.82,2.02,1.49,3.79,1.49,3.92,0,.47-1.25,2.97-1.83,3.66-.95,1.14-1.7,1.4-3.81,1.4l-1.89-.02-.02,1.33c0,.71-.04,1.55-.09,1.85-.17,1.31-.13,1.33,3.08,1.25,2.58-.06,3.06-.13,3.92-.58,1.57-.84,2.15-1.36,3.14-2.84,1.21-1.83,1.36-2.22,7.62-19.14.82-2.2,2.15-5.83,2.99-8.07.84-2.26,1.59-4.39,1.66-4.78l.13-.69-2.41-.06c-1.33-.04-2.5,0-2.63.06Z"/>
      <path class="st4" d="M656.71,209.39c-.24-.02-1.33-.02-2.43.02l-1.98.06.04,13.17.06,13.17h4.95l.06-13.2c.02-7.23-.02-13.17-.11-13.2-.11,0-.37-.02-.6-.04Z"/>
    </g>
  </g>
  <g>
    <g>
      <path class="st2" d="M129.9,251.78s0,0,0,0c-2.26,0-4.61,0-7.08,0h-2.59c-2.32,0-4.54,0-6.67,0,0,0,0,0,0,0h-58.85l45.57,25.28c13.03,8.58,29.92,8.58,42.95,0l45.57-25.28h-58.9Z"/>
      <path class="st0" d="M169.32.5h-95.13C33.5.5.52,33.49.52,74.18v104.19c0,15.72,4.92,30.29,13.31,42.25,5.5,7.85,12.5,14.57,20.58,19.76-.31-1.05-.52-2.15-.6-3.28.04-4.05.08-13.42.08-24.26,0-8.29,0-14.09.03-18.29.03-4.33.08-6.95.19-8.82.07-.62.15-1.24.24-1.85,2.91-17.54,16.52-32.82,36.18-42.61h.13v11.25c0,8.79-.06,11.31-.25,11.44-.15.08-1.1.53-2.11.95-3.58,1.5-7.31,4.4-9.67,7.52-1.37,1.83-2.95,4.93-3.75,7.4-1.22,3.79-1.29,4.61-1.29,19.7,0,13.21.02,13.76.44,15.28,1.16,4.21,3.41,6.89,6.74,8.01,1.1.38,1.69.44,3.24.38,2.11-.11,3.24-.53,4.49-1.73,1.22-1.14,1.62-2.11,1.62-4.02-.02-1.45-.11-1.83-.61-2.8-.65-1.18-1.22-1.69-3.1-2.74-1.45-.82-2.8-2.25-3.16-3.33-.21-.61-.29-3.43-.36-11.15-.04-8.68,0-10.58.27-11.93,1.31-6.51,6.45-10.98,12.64-11,2.23-.02,3.69.36,6.05,1.58,3.16,1.62,6.11,5.54,6.93,9.12.42,1.79.42,22.1.02,23.45-.38,1.26-1.52,2.42-3.06,3.16-2.63,1.22-3.52,2.49-3.69,5.16-.17,2.65.8,4.45,2.99,5.56,1.41.74,4.38.93,5.98.4,1.41-.48,3.46-1.85,4.32-2.95,2.15-2.68,2.63-4.15,2.91-8.55.25-3.94.06-24.42-.25-26.95-.65-5.5-3.14-10.51-7.18-14.5-2.74-2.74-5.35-4.38-8.79-5.6-1.1-.38-1.39-.59-1.47-.99-.06-.29-.06-4.8,0-10.01.15-10.11.21-10.79,1.33-14.12.15-.46.29-.85.42-1.18.45-1.17.79-1.67,1.33-2.04.23-.16.58-.33.98-.51.98-.32,1.96-.62,2.95-.91.15-.03.3-.06.45-.08.7-.13,1.45-.27,1.69-.34.53-.13.82.25,2.25,2.99.11.21.22.41.32.61,2.04,3.87,3.48,6.16,5.75,9.25,6.32,8.55,13.06,14.62,23.22,20.82.32.21.67.36.8.36.42,0,8.11-5.41,11.17-7.86,4.74-3.81,11.99-12.05,15.15-17.21.72-1.17.98-1.62,3-5.35.06-.11.12-.22.18-.34.72-1.33,1.45-2.55,1.64-2.7.25-.21.78-.25,1.94-.17.4.03.82.09,1.25.17,1.06.32,2.11.65,3.15.99,1,.46,1.77.99,2.03,1.48.14.27.26.58.38.93.88,2.67,1.22,7.61.7,11.31-.99,6.97-2.53,13.78-4.66,20.73-.53,1.71-.95,3.27-.95,3.43,0,.15-.61.57-1.37.91-5.35,2.4-9.29,7.31-10.24,12.75-.38,2.21-.15,7.04.44,8.85,1.24,3.88,3.54,7,6.74,9.06,2.63,1.73,4.78,2.51,7.77,2.84,7.58.88,14.71-2.82,17.93-9.38,1.81-3.67,2.32-7.4,1.56-11.44-1.01-5.37-4.68-9.97-10.07-12.62-1.01-.48-1.18-.65-1.07-1.01,1.26-4.19,2.84-11.29,3.77-16.86.86-5.23.99-6.24,1.35-11.27l.27-3.62c19.03,9.81,32.16,24.83,35.01,42.02.36,2.47.56,5,.58,7.57,0,.12,0,.24,0,.37v44.07c0,1.57-.23,3.09-.65,4.53,8.1-5.2,15.12-11.93,20.63-19.8,8.39-11.96,13.31-26.53,13.31-42.25v-104.19C243,33.49,210.01.5,169.32.5ZM121.76,126.24c-23.5,0-42.54-20.35-42.54-45.45s19.05-45.45,42.54-45.45,42.54,20.35,42.54,45.45-19.05,45.45-42.54,45.45ZM168.77,190.47c.08,1.24.02,1.66-.44,2.68-.7,1.58-1.92,2.74-3.33,3.2-1.88.61-2.8.65-4.11.21-3.48-1.18-5.2-5.27-3.58-8.55,1.52-3.1,4.87-4.34,7.86-2.93,2.15,1.01,3.48,2.97,3.6,5.39Z"/>
    </g>
    <g>
      <path class="st1" d="M157.31,188c-1.62,3.29.11,7.37,3.58,8.55,1.31.44,2.23.4,4.11-.21,1.41-.46,2.63-1.62,3.33-3.2.46-1.01.53-1.43.44-2.68-.13-2.42-1.45-4.38-3.6-5.39-2.99-1.41-6.34-.17-7.86,2.93Z"/>
      <path class="st1" d="M209.71,191.46c-.02-2.57-.21-5.1-.58-7.57-2.85-17.19-15.98-32.21-35.01-42.02l-.27,3.62c-.36,5.04-.48,6.05-1.35,11.27-.93,5.56-2.51,12.66-3.77,16.86-.11.36.06.53,1.07,1.01,5.39,2.65,9.06,7.25,10.07,12.62.76,4.05.25,7.77-1.56,11.44-3.22,6.55-10.35,10.26-17.93,9.38-2.99-.34-5.14-1.12-7.77-2.84-3.2-2.06-5.5-5.18-6.74-9.06-.59-1.81-.82-6.64-.44-8.85.95-5.44,4.89-10.35,10.24-12.75.76-.34,1.37-.76,1.37-.91,0-.17.42-1.73.95-3.43,2.13-6.95,3.67-13.76,4.66-20.73.52-3.7.19-8.64-.7-11.31-.12-.35-.24-.67-.38-.93-.26-.49-1.03-1.02-2.03-1.48-1.04-.34-2.09-.67-3.15-.99-.42-.08-.84-.14-1.25-.17-1.16-.08-1.69-.04-1.94.17-.19.15-.93,1.37-1.64,2.7-.06.12-.12.23-.18.34-2.02,3.73-2.28,4.18-3,5.35-3.16,5.16-10.41,13.4-15.15,17.21-3.06,2.44-10.75,7.86-11.17,7.86-.13,0-.48-.15-.8-.36-10.16-6.19-16.9-12.26-23.22-20.82-2.26-3.08-3.71-5.37-5.75-9.25-.11-.2-.21-.4-.32-.61-1.43-2.74-1.73-3.12-2.25-2.99-.23.06-.99.21-1.69.34-.14.02-.29.05-.45.08-.99.29-1.98.59-2.95.91-.4.17-.75.35-.98.51-.54.38-.88.87-1.33,2.04-.13.33-.27.72-.42,1.18-1.12,3.33-1.18,4-1.33,14.12-.06,5.2-.06,9.71,0,10.01.08.4.38.61,1.47.99,3.43,1.22,6.05,2.87,8.79,5.6,4.05,3.98,6.53,9,7.18,14.5.32,2.53.51,23.01.25,26.95-.27,4.4-.76,5.88-2.91,8.55-.86,1.1-2.91,2.47-4.32,2.95-1.6.53-4.57.34-5.98-.4-2.19-1.12-3.16-2.91-2.99-5.56.17-2.68,1.05-3.94,3.69-5.16,1.54-.74,2.68-1.9,3.06-3.16.4-1.35.4-21.66-.02-23.45-.82-3.58-3.77-7.5-6.93-9.12-2.36-1.22-3.81-1.6-6.05-1.58-6.19.02-11.34,4.49-12.64,11-.27,1.35-.32,3.24-.27,11.93.06,7.71.15,10.53.36,11.15.36,1.07,1.71,2.51,3.16,3.33,1.88,1.05,2.44,1.56,3.1,2.74.51.97.59,1.35.61,2.8,0,1.92-.4,2.89-1.62,4.02-1.24,1.2-2.38,1.62-4.49,1.73-1.56.06-2.15,0-3.24-.38-3.33-1.12-5.58-3.79-6.74-8.01-.42-1.52-.44-2.06-.44-15.28,0-15.09.06-15.91,1.29-19.7.8-2.47,2.38-5.56,3.75-7.4,2.36-3.12,6.09-6.03,9.67-7.52,1.01-.42,1.96-.86,2.11-.95.19-.13.25-2.65.25-11.44v-11.25h-.13c-19.66,9.79-33.27,25.07-36.18,42.61-.09.61-.17,1.23-.24,1.85-.11,1.87-.16,4.49-.19,8.82-.03,4.2-.03,10-.03,18.29,0,10.84-.04,20.21-.08,24.26.09,1.13.29,2.23.6,3.28.33,1.14.79,2.22,1.36,3.24,2.71,4.86,7.91,8.16,13.88,8.16h63.92s0,0,0,0c2.14,0,4.36,0,6.67,0h2.59c2.46,0,4.82,0,7.08,0,0,0,0,0,0,0h63.92c5.97,0,11.17-3.29,13.88-8.16.56-1.01,1.02-2.08,1.35-3.2.43-1.43.65-2.95.65-4.53v-44.07c0-.12,0-.24,0-.37Z"/>
      <ellipse class="st1" cx="121.76" cy="80.79" rx="42.54" ry="45.45"/>
    </g>
  </g>
</svg>